<svg xmlns="http://www.w3.org/2000/svg" xmlns:xlink="http://www.w3.org/1999/xlink" width="200" height="300" viewBox="0 0 200 300">
  <defs>
    <clipPath id="clip-boo">
      <rect width="200" height="300"/>
    </clipPath>
  </defs>
  <g id="boo" clip-path="url(#clip-boo)">
    <g id="Rectangle_9" data-name="Rectangle 9" fill="#333" stroke="#84c756" stroke-width="3">
      <rect width="200" height="300" rx="19" stroke="none"/>
      <rect x="1.5" y="1.5" width="197" height="297" rx="17.5" fill="none"/>
    </g>
    <g id="Artwork_16" data-name="Artwork 16" transform="matrix(-1, -0.017, 0.017, -1, 62.872, 235.055)" style="mix-blend-mode: overlay;isolation: isolate">
      <g id="Group_94" data-name="Group 94" transform="translate(-44.872 -50.726)">
        <path id="Path_446" data-name="Path 446" d="M90.024,5.506,89.613,97.87a3.9,3.9,0,0,1-6.98,2.4c-3.914-5.1-9.966-8.727-19.252-6.523a3.8,3.8,0,0,1-2.742-.389,3.908,3.908,0,0,1-1.789-2.129c-1.97-5.654-7.339-16.026-20.278-16.3a3.909,3.909,0,0,1-3.778-4.164c.441-6.988-.918-19.9-16.692-21.21a3.9,3.9,0,0,1-3.4-5.146c2.78-8.067,5.52-23.081-11.1-26.034A3.929,3.929,0,0,1,.631,13C1.6,10.644,2.319,7.812,1.636,5.4A3.928,3.928,0,0,1,5.385.329l80.8.42a3.912,3.912,0,0,1,3.866,4.343h0A3.579,3.579,0,0,0,90.024,5.506Z" transform="translate(-0.329 -0.329)" fill="none" stroke="#fff" stroke-miterlimit="10" stroke-width="1.5"/>
        <path id="Path_447" data-name="Path 447" d="M60.639,93.355" transform="translate(-0.329 -0.329)" fill="none" stroke="#fff" stroke-miterlimit="10" stroke-width="1.5"/>
        <line id="Line_21" data-name="Line 21" x1="27.659" y2="92.031" transform="translate(60.528 0.946)" fill="none" stroke="#fff" stroke-miterlimit="10" stroke-width="1.5"/>
        <line id="Line_22" data-name="Line 22" x1="52.301" y2="72.166" transform="translate(35.886 1.198)" fill="none" stroke="#fff" stroke-miterlimit="10" stroke-width="1.5"/>
        <line id="Line_23" data-name="Line 23" x1="73.172" y2="46.141" transform="translate(14.764 1.072)" fill="none" stroke="#fff" stroke-miterlimit="10" stroke-width="1.5"/>
        <line id="Line_24" data-name="Line 24" x1="85.991" y2="8.224" transform="translate(1.689 1.272)" fill="none" stroke="#fff" stroke-miterlimit="10" stroke-width="1.5"/>
        <path id="Path_448" data-name="Path 448" d="M35.433,34.659c2.78-8.066,4.805-24-11.816-26.951" transform="translate(-0.329 -0.329)" fill="none" stroke="#fff" stroke-miterlimit="10" stroke-width="1.5"/>
        <path id="Path_449" data-name="Path 449" d="M56.833,21.391c2.78-8.067,2.6-15.518-10.247-15.94" transform="translate(-0.329 -0.329)" fill="none" stroke="#fff" stroke-miterlimit="10" stroke-width="1.5"/>
        <path id="Path_450" data-name="Path 450" d="M46.867,59.222c.442-6.987-.917-19.9-16.692-21.209" transform="translate(-0.329 -0.329)" fill="none" stroke="#fff" stroke-miterlimit="10" stroke-width="1.5"/>
        <path id="Path_451" data-name="Path 451" d="M60.354,40.5c.291-7.092.044-14.247-11.069-14.558" transform="translate(-0.329 -0.329)" fill="none" stroke="#fff" stroke-miterlimit="10" stroke-width="1.5"/>
        <path id="Path_452" data-name="Path 452" d="M64.774,79.534a23.207,23.207,0,0,0-21.508-15.4" transform="translate(-0.329 -0.329)" fill="none" stroke="#fff" stroke-miterlimit="10" stroke-width="1.5"/>
        <path id="Path_453" data-name="Path 453" d="M89.6,84.712c-4.527-5.9-13.023-9.72-23.764-7.17" transform="translate(-0.329 -0.329)" fill="none" stroke="#fff" stroke-miterlimit="10" stroke-width="1.5"/>
        <path id="Path_454" data-name="Path 454" d="M89.734,65.062c-4.3-5.6-8.123-9.379-18.317-6.959" transform="translate(-0.329 -0.329)" fill="none" stroke="#fff" stroke-miterlimit="10" stroke-width="1.5"/>
        <path id="Path_455" data-name="Path 455" d="M69.421,64.664c-.015-7.211-4.342-14.884-17.127-12.878" transform="translate(-0.329 -0.329)" fill="none" stroke="#fff" stroke-miterlimit="10" stroke-width="1.5"/>
        <path id="Path_456" data-name="Path 456" d="M90.017,47.428c-2.141-6.662-3.867-8.52-13.294-6.794" transform="translate(-0.329 -0.329)" fill="none" stroke="#fff" stroke-miterlimit="10" stroke-width="1.5"/>
        <path id="Path_457" data-name="Path 457" d="M76.32,41.608c-.924-8.675-9.554-9.87-15.661-1.771" transform="translate(-0.329 -0.329)" fill="none" stroke="#fff" stroke-miterlimit="10" stroke-width="1.5"/>
        <path id="Path_458" data-name="Path 458" d="M80.308,28.287c-.924-8.675-8.364-3.983-10.09-1.461" transform="translate(-0.329 -0.329)" fill="none" stroke="#fff" stroke-miterlimit="10" stroke-width="1.5"/>
        <path id="Path_459" data-name="Path 459" d="M89.853,34.2c-2.142-6.662-5.695-7.9-9.811-4.847" transform="translate(-0.329 -0.329)" fill="none" stroke="#fff" stroke-miterlimit="10" stroke-width="1.5"/>
        <path id="Path_460" data-name="Path 460" d="M71.187,25.468c.291-7.092-1.633-9.661-6.944-9.13" transform="translate(-0.329 -0.329)" fill="none" stroke="#fff" stroke-miterlimit="10" stroke-width="1.5"/>
        <path id="Path_461" data-name="Path 461" d="M64.111,16.338c2.78-8.067-1.461-10.489-4.647-12.215" transform="translate(-0.329 -0.329)" fill="none" stroke="#fff" stroke-miterlimit="10" stroke-width="1.5"/>
        <path id="Path_462" data-name="Path 462" d="M55.348,47.006c.978-7.48-2.512-15.938-14.215-15.916" transform="translate(-0.329 -0.329)" fill="none" stroke="#fff" stroke-miterlimit="10" stroke-width="1.5"/>
        <path id="Path_463" data-name="Path 463" d="M72.342,54.309c-.015-7.212-7.037-12.746-16.33-8.1" transform="translate(-0.329 -0.329)" fill="none" stroke="#fff" stroke-miterlimit="10" stroke-width="1.5"/>
        <path id="Path_464" data-name="Path 464" d="M25.21,40.9C27.99,32.832,28.2,11.928,11.575,8.976" transform="translate(-0.329 -0.329)" fill="none" stroke="#fff" stroke-miterlimit="10" stroke-width="1.5"/>
        <path id="Path_465" data-name="Path 465" d="M46.055,27.888c2.78-8.066,2.756-20.82-10.091-21.242" transform="translate(-0.329 -0.329)" fill="none" stroke="#fff" stroke-miterlimit="10" stroke-width="1.5"/>
      </g>
    </g>
    <g id="Artwork_16-2" data-name="Artwork 16" transform="translate(139.872 65.055)" style="mix-blend-mode: overlay;isolation: isolate">
      <g id="Group_102" data-name="Group 102" transform="translate(-44.872 -50.726)">
        <path id="Path_522" data-name="Path 522" d="M90.024,5.506,89.613,97.87a3.9,3.9,0,0,1-6.98,2.4c-3.914-5.1-9.966-8.727-19.252-6.523a3.8,3.8,0,0,1-2.742-.389,3.908,3.908,0,0,1-1.789-2.129c-1.97-5.654-7.339-16.026-20.278-16.3a3.909,3.909,0,0,1-3.778-4.164c.441-6.988-.918-19.9-16.692-21.21a3.9,3.9,0,0,1-3.4-5.146c2.78-8.067,5.52-23.081-11.1-26.034A3.929,3.929,0,0,1,.631,13C1.6,10.644,2.319,7.812,1.636,5.4A3.928,3.928,0,0,1,5.385.329l80.8.42a3.912,3.912,0,0,1,3.866,4.343h0A3.579,3.579,0,0,0,90.024,5.506Z" transform="translate(-0.329 -0.329)" fill="none" stroke="#fff" stroke-miterlimit="10" stroke-width="1.5"/>
        <path id="Path_523" data-name="Path 523" d="M60.639,93.355" transform="translate(-0.329 -0.329)" fill="none" stroke="#fff" stroke-miterlimit="10" stroke-width="1.5"/>
        <line id="Line_33" data-name="Line 33" x1="27.659" y2="92.031" transform="translate(60.528 0.946)" fill="none" stroke="#fff" stroke-miterlimit="10" stroke-width="1.5"/>
        <line id="Line_34" data-name="Line 34" x1="52.301" y2="72.166" transform="translate(35.886 1.198)" fill="none" stroke="#fff" stroke-miterlimit="10" stroke-width="1.5"/>
        <line id="Line_35" data-name="Line 35" x1="73.172" y2="46.141" transform="translate(14.764 1.072)" fill="none" stroke="#fff" stroke-miterlimit="10" stroke-width="1.5"/>
        <line id="Line_36" data-name="Line 36" x1="85.991" y2="8.224" transform="translate(1.689 1.272)" fill="none" stroke="#fff" stroke-miterlimit="10" stroke-width="1.5"/>
        <path id="Path_524" data-name="Path 524" d="M35.433,34.659c2.78-8.066,4.805-24-11.816-26.951" transform="translate(-0.329 -0.329)" fill="none" stroke="#fff" stroke-miterlimit="10" stroke-width="1.5"/>
        <path id="Path_525" data-name="Path 525" d="M56.833,21.391c2.78-8.067,2.6-15.518-10.247-15.94" transform="translate(-0.329 -0.329)" fill="none" stroke="#fff" stroke-miterlimit="10" stroke-width="1.5"/>
        <path id="Path_526" data-name="Path 526" d="M46.867,59.222c.442-6.987-.917-19.9-16.692-21.209" transform="translate(-0.329 -0.329)" fill="none" stroke="#fff" stroke-miterlimit="10" stroke-width="1.5"/>
        <path id="Path_527" data-name="Path 527" d="M60.354,40.5c.291-7.092.044-14.247-11.069-14.558" transform="translate(-0.329 -0.329)" fill="none" stroke="#fff" stroke-miterlimit="10" stroke-width="1.5"/>
        <path id="Path_528" data-name="Path 528" d="M64.774,79.534a23.207,23.207,0,0,0-21.508-15.4" transform="translate(-0.329 -0.329)" fill="none" stroke="#fff" stroke-miterlimit="10" stroke-width="1.5"/>
        <path id="Path_529" data-name="Path 529" d="M89.6,84.712c-4.527-5.9-13.023-9.72-23.764-7.17" transform="translate(-0.329 -0.329)" fill="none" stroke="#fff" stroke-miterlimit="10" stroke-width="1.5"/>
        <path id="Path_530" data-name="Path 530" d="M89.734,65.062c-4.3-5.6-8.123-9.379-18.317-6.959" transform="translate(-0.329 -0.329)" fill="none" stroke="#fff" stroke-miterlimit="10" stroke-width="1.5"/>
        <path id="Path_531" data-name="Path 531" d="M69.421,64.664c-.015-7.211-4.342-14.884-17.127-12.878" transform="translate(-0.329 -0.329)" fill="none" stroke="#fff" stroke-miterlimit="10" stroke-width="1.5"/>
        <path id="Path_532" data-name="Path 532" d="M90.017,47.428c-2.141-6.662-3.867-8.52-13.294-6.794" transform="translate(-0.329 -0.329)" fill="none" stroke="#fff" stroke-miterlimit="10" stroke-width="1.5"/>
        <path id="Path_533" data-name="Path 533" d="M76.32,41.608c-.924-8.675-9.554-9.87-15.661-1.771" transform="translate(-0.329 -0.329)" fill="none" stroke="#fff" stroke-miterlimit="10" stroke-width="1.5"/>
        <path id="Path_534" data-name="Path 534" d="M80.308,28.287c-.924-8.675-8.364-3.983-10.09-1.461" transform="translate(-0.329 -0.329)" fill="none" stroke="#fff" stroke-miterlimit="10" stroke-width="1.5"/>
        <path id="Path_535" data-name="Path 535" d="M89.853,34.2c-2.142-6.662-5.695-7.9-9.811-4.847" transform="translate(-0.329 -0.329)" fill="none" stroke="#fff" stroke-miterlimit="10" stroke-width="1.5"/>
        <path id="Path_536" data-name="Path 536" d="M71.187,25.468c.291-7.092-1.633-9.661-6.944-9.13" transform="translate(-0.329 -0.329)" fill="none" stroke="#fff" stroke-miterlimit="10" stroke-width="1.5"/>
        <path id="Path_537" data-name="Path 537" d="M64.111,16.338c2.78-8.067-1.461-10.489-4.647-12.215" transform="translate(-0.329 -0.329)" fill="none" stroke="#fff" stroke-miterlimit="10" stroke-width="1.5"/>
        <path id="Path_538" data-name="Path 538" d="M55.348,47.006c.978-7.48-2.512-15.938-14.215-15.916" transform="translate(-0.329 -0.329)" fill="none" stroke="#fff" stroke-miterlimit="10" stroke-width="1.5"/>
        <path id="Path_539" data-name="Path 539" d="M72.342,54.309c-.015-7.212-7.037-12.746-16.33-8.1" transform="translate(-0.329 -0.329)" fill="none" stroke="#fff" stroke-miterlimit="10" stroke-width="1.5"/>
        <path id="Path_540" data-name="Path 540" d="M25.21,40.9C27.99,32.832,28.2,11.928,11.575,8.976" transform="translate(-0.329 -0.329)" fill="none" stroke="#fff" stroke-miterlimit="10" stroke-width="1.5"/>
        <path id="Path_541" data-name="Path 541" d="M46.055,27.888c2.78-8.066,2.756-20.82-10.091-21.242" transform="translate(-0.329 -0.329)" fill="none" stroke="#fff" stroke-miterlimit="10" stroke-width="1.5"/>
      </g>
    </g>
    <g id="Artwork_13" data-name="Artwork 13" transform="translate(99.922 153.898)">
      <g id="Group_56" data-name="Group 56" transform="translate(-75 -86.898)">
        <g id="Layer_4" data-name="Layer 4">
          <path id="Path_179" data-name="Path 179" d="M166.07,30.779c35.579,0,64.451,23.907,64.745,62.091H241.07c-.294-44.275-33.757-73.119-75-73.119S91.364,48.6,91.07,92.871h10.255C101.619,54.686,130.491,30.779,166.07,30.779Z" transform="translate(-91.07 -19.752)"/>
        </g>
        <g id="Layer_3" data-name="Layer 3" transform="translate(1.872 37.907)">
          <g id="Group_55" data-name="Group 55">
            <path id="Path_180" data-name="Path 180" d="M244.179,259.745c-1.8-6.429-7.891-21.412-25.746-22.112,0,0-3.57-5.8-18.745-4.463-.07-2.912-17.257-7.845-24.605-.848-7.249-7.238-24.7-2.25-24.775.684-15.174-1.339-18.745,4.463-18.745,4.463a26.526,26.526,0,0,0-19.869,9.852c-4.13,2.029-7.036,6.066-7.314,13.282a5.069,5.069,0,0,0-3.038,4.98l.411,5.7a12.411,12.411,0,0,0,6.936,10.2,5,5,0,0,0,.025.591c1.047,9.692,3.12,30.369,4.465,53.476-1.4,38.368,122.339,38.368,124.2-1.163,1.223-25.988,2.245-44.187,2.8-53.606a7.236,7.236,0,0,0-.01-.985A11.526,11.526,0,0,0,246.8,269.44v-5.293A5.039,5.039,0,0,0,244.179,259.745Z" transform="translate(-101.325 -228.297)" stroke="#000" stroke-miterlimit="10" stroke-width="6.605"/>
            <path id="Path_181" data-name="Path 181" d="M228.344,236.068s-3.57-5.8-18.745-4.463c-.07-2.912-17.257-7.844-24.605-.848-7.249-7.238-24.7-2.25-24.775.684-15.174-1.339-18.745,4.463-18.745,4.463-22.762.893-28,26.284-28,26.284,20.069,23.326,50.268,19.4,71.058,19.583l.28-.28c21.045.055,49.569,3.253,69.939-20.422C254.754,261.069,251.106,236.96,228.344,236.068Z" transform="translate(-111.251 -227.018)" fill="#fff" stroke="#999" stroke-miterlimit="10" stroke-width="1.321"/>
            <path id="Path_182" data-name="Path 182" d="M218.228,233.492c-7.35-6.992-24.531-2.062-24.6.85C178.452,233,174.882,238.8,174.882,238.8c-10.168.4-16.836,5.687-21.1,11.416a25.214,25.214,0,0,0,18.865,8.864s3.573,5.8,18.747,4.456c.072,2.912,17.26,7.838,24.606.839.17.17.348.331.529.488C220.262,254.425,222.591,243.829,218.228,233.492Z" transform="translate(-144.181 -229.389)" opacity="0.14" style="mix-blend-mode: multiply;isolation: isolate"/>
            <path id="Path_183" data-name="Path 183" d="M141.489,486.438c1.047,9.692,3.12,30.369,4.465,53.475-1.4,38.368,122.339,38.368,124.2-1.163,1.223-25.988,2.245-44.187,2.8-53.607.23-3.893-2.675-6.916-5.7-5.917-16.416,5.428-60.558,22.487-121.893,2.894C143.216,481.434,141.192,483.688,141.489,486.438Z" transform="translate(-134.116 -432.943)" fill="#fff" stroke="#999" stroke-miterlimit="10" stroke-width="1.321"/>
            <path id="Path_184" data-name="Path 184" d="M463.325,291.674H441.613V282.55c-.581-8.1,21.828-7.641,21.712,0Z" transform="translate(-379.365 -267.57)" fill="#fff" stroke="gray" stroke-miterlimit="10" stroke-width="1.321"/>
            <ellipse id="Ellipse_4" data-name="Ellipse 4" cx="10.459" cy="3.094" rx="10.459" ry="3.094" transform="translate(62.808 9.049)" fill="#fff" stroke="gray" stroke-miterlimit="10" stroke-width="1.321"/>
            <g id="Group_53" data-name="Group 53" transform="translate(3.016 16.995)">
              <path id="Path_185" data-name="Path 185" d="M157.764,326s-42.421-20.088-39.858,12.884c2.934,4.008,15.647,5.178,26.092,7.006C144,345.891,145.388,330.49,157.764,326Z" transform="translate(-117.795 -319.941)" fill="#fff" stroke="gray" stroke-miterlimit="10" stroke-width="1.321"/>
              <path id="Path_186" data-name="Path 186" d="M220.674,342.8s-33.292-17.4-37.436,13.1c4.652,7.443,13.246,5.381,23.67,6.785C206.908,362.694,208.3,347.294,220.674,342.8Z" transform="translate(-171.269 -334.584)" fill="#fff" stroke="gray" stroke-miterlimit="10" stroke-width="1.321"/>
              <path id="Path_187" data-name="Path 187" d="M301.147,338.756s-38.609-10.8-36.283,23.146c10.465,3.767,20.26,6.053,26.98,1.543C291.843,363.445,289.983,346.471,301.147,338.756Z" transform="translate(-237.883 -333.98)" fill="#fff" stroke="gray" stroke-miterlimit="10" stroke-width="1.321"/>
            </g>
            <g id="Group_54" data-name="Group 54" transform="translate(78.284 16.995)">
              <path id="Path_188" data-name="Path 188" d="M656.7,326s42.421-20.088,39.858,12.884c-2.934,4.008-15.647,5.178-26.092,7.006C670.469,345.891,669.079,330.49,656.7,326Z" transform="translate(-633.409 -319.941)" fill="#fff" stroke="#999" stroke-miterlimit="10" stroke-width="1.321"/>
              <path id="Path_189" data-name="Path 189" d="M605.11,342.8s33.292-17.4,37.436,13.1c-4.652,7.443-13.246,5.381-23.67,6.785C618.876,362.694,617.486,347.294,605.11,342.8Z" transform="translate(-591.252 -334.584)" fill="#fff" stroke="#999" stroke-miterlimit="10" stroke-width="1.321"/>
              <path id="Path_190" data-name="Path 190" d="M529.339,338.756s38.609-10.8,36.283,23.146c-10.465,3.767-20.26,6.053-26.98,1.543C538.642,363.445,540.5,346.471,529.339,338.756Z" transform="translate(-529.339 -333.98)" fill="#fff" stroke="#999" stroke-miterlimit="10" stroke-width="1.321"/>
            </g>
            <path id="Path_191" data-name="Path 191" d="M408.756,346.054s4.136,1.987,12,0c0,0,12.345,1.65,11.786,17.876a117.048,117.048,0,0,1-36.089,0S398.953,347.761,408.756,346.054Z" transform="translate(-342.477 -324.283)" fill="#fff" stroke="gray" stroke-miterlimit="10" stroke-width="1.321"/>
            <path id="Path_192" data-name="Path 192" d="M549.668,611.423a11.357,11.357,0,1,1,19.959,10.845,3.269,3.269,0,1,1-5.745-3.122,4.831,4.831,0,0,0-8.49-4.613,3.257,3.257,0,1,1-5.724-3.11" transform="translate(-467.345 -536.275)"/>
            <path id="Path_193" data-name="Path 193" d="M346.338,607.557a11.357,11.357,0,1,1,21.336,7.794,3.269,3.269,0,1,1-6.141-2.243,4.831,4.831,0,0,0-9.076-3.315,3.257,3.257,0,1,1-6.119-2.235" transform="translate(-301.363 -531.865)"/>
            <ellipse id="Ellipse_5" data-name="Ellipse 5" cx="11.676" cy="16.337" rx="11.676" ry="16.337" transform="translate(62.668 93.665)"/>
            <path id="Path_194" data-name="Path 194" d="M262.2,450.018c-16.443,5.8-60.672,24.048-121.906,2.56-2.148-.754-4.183,1.675-3.9,4.653.174,1.826.377,4.019.6,6.516.09,1,9.856,3.5,11.072,3.88,18.372,5.67,37.571,5.14,56.747,6.069,18.025.874,53.5-9.578,61.76.33,1,1.2.93-11.4,1.007-12.723.1-1.8.2-3.426.284-4.857C268.111,452.236,265.221,448.952,262.2,450.018Z" transform="translate(-129.952 -409.067)" opacity="0.25" style="mix-blend-mode: multiply;isolation: isolate"/>
            <path id="Path_195" data-name="Path 195" d="M782.3,326.907a1.378,1.378,0,0,0-1.484,2.064c.02.03.038.06.055.09,3.455,5.723,5.822,10.123,6.121,16.264a1.4,1.4,0,0,0,1.631,1.278c2.98-.433,4.726-.075,5.922-1.111a1.333,1.333,0,0,0,.454-.918C795.759,332.961,789.575,328.3,782.3,326.907Z" transform="translate(-656.353 -308.616)" opacity="0.14" style="mix-blend-mode: multiply;isolation: isolate"/>
            <path id="Path_196" data-name="Path 196" d="M711,363.551c-2.068-14.475-8.582-17.615-16.626-17.259a1.009,1.009,0,0,0-.561,1.819,13.34,13.34,0,0,1,4.248,5.048c2.422,4.845,4.272,8.463,5.142,13.612a1.008,1.008,0,0,0,1.072.835c3.725-.295,4.329.155,6.579-3.37A1.013,1.013,0,0,0,711,363.551Z" transform="translate(-585.111 -324.457)" opacity="0.14" style="mix-blend-mode: multiply;isolation: isolate"/>
            <path id="Path_197" data-name="Path 197" d="M566.21,348.824a.909.909,0,0,0-.22,1.769c8.419,2.738,14.747,10.627,16.613,19.688.254,1.268.468,2.537.656,3.805a.912.912,0,0,0,1.155.744c2.345-.669,4.761-1.506,7.217-2.438a.913.913,0,0,0,.588-.819C592.937,350.218,577,347.944,566.21,348.824Z" transform="translate(-480.495 -326.42)" opacity="0.14" style="mix-blend-mode: multiply;isolation: isolate"/>
            <path id="Path_198" data-name="Path 198" d="M502.388,354.383l-.045.006a2.894,2.894,0,0,0-2.425,3.538,24.293,24.293,0,0,1-.5,11.759,2.879,2.879,0,0,0,2.71,3.62q4.2.108,8.491-.053a2.89,2.89,0,0,0,2.771-2.815c.335-11.529-7.207-15.085-9.631-15.928A2.932,2.932,0,0,0,502.388,354.383Z" transform="translate(-426.529 -331.064)" opacity="0.14" style="mix-blend-mode: multiply;isolation: isolate"/>
            <path id="Path_199" data-name="Path 199" d="M101.32,403.435l.411,5.7a12.45,12.45,0,0,0,8.136,10.731c27.428,10.217,92.957,10.132,128.822-1.627a11.586,11.586,0,0,0,8.092-10.946V402a5.232,5.232,0,0,0-6.727-4.891q-67.6,18.8-132.063,1.069A5.211,5.211,0,0,0,101.32,403.435Z" transform="translate(-101.307 -365.836)" fill="#fff" stroke="gray" stroke-miterlimit="10" stroke-width="1.321"/>
            <path id="Path_200" data-name="Path 200" d="M293.934,418.714a.408.408,0,0,0-.2.079,99.989,99.989,0,0,1-24.812,14.1c-17.215,6.984-35.01,3.6-52.293-.455a.38.38,0,1,0-.215.728c28.121,8,86.8,7.089,117.215-3.909a6.157,6.157,0,0,0,4.17-5.735v-6.834a5.42,5.42,0,0,0-6.96-4.972A249.779,249.779,0,0,1,293.934,418.714Z" transform="translate(-195.129 -377.771)" opacity="0.14" style="mix-blend-mode: multiply;isolation: isolate"/>
          </g>
        </g>
      </g>
    </g>
  </g>
</svg>
