<svg xmlns="http://www.w3.org/2000/svg" xmlns:xlink="http://www.w3.org/1999/xlink" width="200" height="300" viewBox="0 0 200 300">
  <defs>
    <clipPath id="clip-boo2">
      <rect width="200" height="300"/>
    </clipPath>
  </defs>
  <g id="boo2" clip-path="url(#clip-boo2)">
    <g id="Rectangle_9" data-name="Rectangle 9" fill="#333" stroke="#84c756" stroke-width="3">
      <rect width="200" height="300" rx="19" stroke="none"/>
      <rect x="1.5" y="1.5" width="197" height="297" rx="17.5" fill="none"/>
    </g>
    <g id="Artwork_16" data-name="Artwork 16" transform="matrix(-1, -0.017, 0.017, -1, 62.872, 235.055)" style="mix-blend-mode: overlay;isolation: isolate">
      <g id="Group_94" data-name="Group 94" transform="translate(-44.872 -50.726)">
        <path id="Path_446" data-name="Path 446" d="M90.024,5.506,89.613,97.87a3.9,3.9,0,0,1-6.98,2.4c-3.914-5.1-9.966-8.727-19.252-6.523a3.8,3.8,0,0,1-2.742-.389,3.908,3.908,0,0,1-1.789-2.129c-1.97-5.654-7.339-16.026-20.278-16.3a3.909,3.909,0,0,1-3.778-4.164c.441-6.988-.918-19.9-16.692-21.21a3.9,3.9,0,0,1-3.4-5.146c2.78-8.067,5.52-23.081-11.1-26.034A3.929,3.929,0,0,1,.631,13C1.6,10.644,2.319,7.812,1.636,5.4A3.928,3.928,0,0,1,5.385.329l80.8.42a3.912,3.912,0,0,1,3.866,4.343h0A3.579,3.579,0,0,0,90.024,5.506Z" transform="translate(-0.329 -0.329)" fill="none" stroke="#fff" stroke-miterlimit="10" stroke-width="1.5"/>
        <path id="Path_447" data-name="Path 447" d="M60.639,93.355" transform="translate(-0.329 -0.329)" fill="none" stroke="#fff" stroke-miterlimit="10" stroke-width="1.5"/>
        <line id="Line_21" data-name="Line 21" x1="27.659" y2="92.031" transform="translate(60.528 0.946)" fill="none" stroke="#fff" stroke-miterlimit="10" stroke-width="1.5"/>
        <line id="Line_22" data-name="Line 22" x1="52.301" y2="72.166" transform="translate(35.886 1.198)" fill="none" stroke="#fff" stroke-miterlimit="10" stroke-width="1.5"/>
        <line id="Line_23" data-name="Line 23" x1="73.172" y2="46.141" transform="translate(14.764 1.072)" fill="none" stroke="#fff" stroke-miterlimit="10" stroke-width="1.5"/>
        <line id="Line_24" data-name="Line 24" x1="85.991" y2="8.224" transform="translate(1.689 1.272)" fill="none" stroke="#fff" stroke-miterlimit="10" stroke-width="1.5"/>
        <path id="Path_448" data-name="Path 448" d="M35.433,34.659c2.78-8.066,4.805-24-11.816-26.951" transform="translate(-0.329 -0.329)" fill="none" stroke="#fff" stroke-miterlimit="10" stroke-width="1.5"/>
        <path id="Path_449" data-name="Path 449" d="M56.833,21.391c2.78-8.067,2.6-15.518-10.247-15.94" transform="translate(-0.329 -0.329)" fill="none" stroke="#fff" stroke-miterlimit="10" stroke-width="1.5"/>
        <path id="Path_450" data-name="Path 450" d="M46.867,59.222c.442-6.987-.917-19.9-16.692-21.209" transform="translate(-0.329 -0.329)" fill="none" stroke="#fff" stroke-miterlimit="10" stroke-width="1.5"/>
        <path id="Path_451" data-name="Path 451" d="M60.354,40.5c.291-7.092.044-14.247-11.069-14.558" transform="translate(-0.329 -0.329)" fill="none" stroke="#fff" stroke-miterlimit="10" stroke-width="1.5"/>
        <path id="Path_452" data-name="Path 452" d="M64.774,79.534a23.207,23.207,0,0,0-21.508-15.4" transform="translate(-0.329 -0.329)" fill="none" stroke="#fff" stroke-miterlimit="10" stroke-width="1.5"/>
        <path id="Path_453" data-name="Path 453" d="M89.6,84.712c-4.527-5.9-13.023-9.72-23.764-7.17" transform="translate(-0.329 -0.329)" fill="none" stroke="#fff" stroke-miterlimit="10" stroke-width="1.5"/>
        <path id="Path_454" data-name="Path 454" d="M89.734,65.062c-4.3-5.6-8.123-9.379-18.317-6.959" transform="translate(-0.329 -0.329)" fill="none" stroke="#fff" stroke-miterlimit="10" stroke-width="1.5"/>
        <path id="Path_455" data-name="Path 455" d="M69.421,64.664c-.015-7.211-4.342-14.884-17.127-12.878" transform="translate(-0.329 -0.329)" fill="none" stroke="#fff" stroke-miterlimit="10" stroke-width="1.5"/>
        <path id="Path_456" data-name="Path 456" d="M90.017,47.428c-2.141-6.662-3.867-8.52-13.294-6.794" transform="translate(-0.329 -0.329)" fill="none" stroke="#fff" stroke-miterlimit="10" stroke-width="1.5"/>
        <path id="Path_457" data-name="Path 457" d="M76.32,41.608c-.924-8.675-9.554-9.87-15.661-1.771" transform="translate(-0.329 -0.329)" fill="none" stroke="#fff" stroke-miterlimit="10" stroke-width="1.5"/>
        <path id="Path_458" data-name="Path 458" d="M80.308,28.287c-.924-8.675-8.364-3.983-10.09-1.461" transform="translate(-0.329 -0.329)" fill="none" stroke="#fff" stroke-miterlimit="10" stroke-width="1.5"/>
        <path id="Path_459" data-name="Path 459" d="M89.853,34.2c-2.142-6.662-5.695-7.9-9.811-4.847" transform="translate(-0.329 -0.329)" fill="none" stroke="#fff" stroke-miterlimit="10" stroke-width="1.5"/>
        <path id="Path_460" data-name="Path 460" d="M71.187,25.468c.291-7.092-1.633-9.661-6.944-9.13" transform="translate(-0.329 -0.329)" fill="none" stroke="#fff" stroke-miterlimit="10" stroke-width="1.5"/>
        <path id="Path_461" data-name="Path 461" d="M64.111,16.338c2.78-8.067-1.461-10.489-4.647-12.215" transform="translate(-0.329 -0.329)" fill="none" stroke="#fff" stroke-miterlimit="10" stroke-width="1.5"/>
        <path id="Path_462" data-name="Path 462" d="M55.348,47.006c.978-7.48-2.512-15.938-14.215-15.916" transform="translate(-0.329 -0.329)" fill="none" stroke="#fff" stroke-miterlimit="10" stroke-width="1.5"/>
        <path id="Path_463" data-name="Path 463" d="M72.342,54.309c-.015-7.212-7.037-12.746-16.33-8.1" transform="translate(-0.329 -0.329)" fill="none" stroke="#fff" stroke-miterlimit="10" stroke-width="1.5"/>
        <path id="Path_464" data-name="Path 464" d="M25.21,40.9C27.99,32.832,28.2,11.928,11.575,8.976" transform="translate(-0.329 -0.329)" fill="none" stroke="#fff" stroke-miterlimit="10" stroke-width="1.5"/>
        <path id="Path_465" data-name="Path 465" d="M46.055,27.888c2.78-8.066,2.756-20.82-10.091-21.242" transform="translate(-0.329 -0.329)" fill="none" stroke="#fff" stroke-miterlimit="10" stroke-width="1.5"/>
      </g>
    </g>
    <g id="Artwork_16-2" data-name="Artwork 16" transform="translate(139.872 65.055)" style="mix-blend-mode: overlay;isolation: isolate">
      <g id="Group_102" data-name="Group 102" transform="translate(-44.872 -50.726)">
        <path id="Path_522" data-name="Path 522" d="M90.024,5.506,89.613,97.87a3.9,3.9,0,0,1-6.98,2.4c-3.914-5.1-9.966-8.727-19.252-6.523a3.8,3.8,0,0,1-2.742-.389,3.908,3.908,0,0,1-1.789-2.129c-1.97-5.654-7.339-16.026-20.278-16.3a3.909,3.909,0,0,1-3.778-4.164c.441-6.988-.918-19.9-16.692-21.21a3.9,3.9,0,0,1-3.4-5.146c2.78-8.067,5.52-23.081-11.1-26.034A3.929,3.929,0,0,1,.631,13C1.6,10.644,2.319,7.812,1.636,5.4A3.928,3.928,0,0,1,5.385.329l80.8.42a3.912,3.912,0,0,1,3.866,4.343h0A3.579,3.579,0,0,0,90.024,5.506Z" transform="translate(-0.329 -0.329)" fill="none" stroke="#fff" stroke-miterlimit="10" stroke-width="1.5"/>
        <path id="Path_523" data-name="Path 523" d="M60.639,93.355" transform="translate(-0.329 -0.329)" fill="none" stroke="#fff" stroke-miterlimit="10" stroke-width="1.5"/>
        <line id="Line_33" data-name="Line 33" x1="27.659" y2="92.031" transform="translate(60.528 0.946)" fill="none" stroke="#fff" stroke-miterlimit="10" stroke-width="1.5"/>
        <line id="Line_34" data-name="Line 34" x1="52.301" y2="72.166" transform="translate(35.886 1.198)" fill="none" stroke="#fff" stroke-miterlimit="10" stroke-width="1.5"/>
        <line id="Line_35" data-name="Line 35" x1="73.172" y2="46.141" transform="translate(14.764 1.072)" fill="none" stroke="#fff" stroke-miterlimit="10" stroke-width="1.5"/>
        <line id="Line_36" data-name="Line 36" x1="85.991" y2="8.224" transform="translate(1.689 1.272)" fill="none" stroke="#fff" stroke-miterlimit="10" stroke-width="1.5"/>
        <path id="Path_524" data-name="Path 524" d="M35.433,34.659c2.78-8.066,4.805-24-11.816-26.951" transform="translate(-0.329 -0.329)" fill="none" stroke="#fff" stroke-miterlimit="10" stroke-width="1.5"/>
        <path id="Path_525" data-name="Path 525" d="M56.833,21.391c2.78-8.067,2.6-15.518-10.247-15.94" transform="translate(-0.329 -0.329)" fill="none" stroke="#fff" stroke-miterlimit="10" stroke-width="1.5"/>
        <path id="Path_526" data-name="Path 526" d="M46.867,59.222c.442-6.987-.917-19.9-16.692-21.209" transform="translate(-0.329 -0.329)" fill="none" stroke="#fff" stroke-miterlimit="10" stroke-width="1.5"/>
        <path id="Path_527" data-name="Path 527" d="M60.354,40.5c.291-7.092.044-14.247-11.069-14.558" transform="translate(-0.329 -0.329)" fill="none" stroke="#fff" stroke-miterlimit="10" stroke-width="1.5"/>
        <path id="Path_528" data-name="Path 528" d="M64.774,79.534a23.207,23.207,0,0,0-21.508-15.4" transform="translate(-0.329 -0.329)" fill="none" stroke="#fff" stroke-miterlimit="10" stroke-width="1.5"/>
        <path id="Path_529" data-name="Path 529" d="M89.6,84.712c-4.527-5.9-13.023-9.72-23.764-7.17" transform="translate(-0.329 -0.329)" fill="none" stroke="#fff" stroke-miterlimit="10" stroke-width="1.5"/>
        <path id="Path_530" data-name="Path 530" d="M89.734,65.062c-4.3-5.6-8.123-9.379-18.317-6.959" transform="translate(-0.329 -0.329)" fill="none" stroke="#fff" stroke-miterlimit="10" stroke-width="1.5"/>
        <path id="Path_531" data-name="Path 531" d="M69.421,64.664c-.015-7.211-4.342-14.884-17.127-12.878" transform="translate(-0.329 -0.329)" fill="none" stroke="#fff" stroke-miterlimit="10" stroke-width="1.5"/>
        <path id="Path_532" data-name="Path 532" d="M90.017,47.428c-2.141-6.662-3.867-8.52-13.294-6.794" transform="translate(-0.329 -0.329)" fill="none" stroke="#fff" stroke-miterlimit="10" stroke-width="1.5"/>
        <path id="Path_533" data-name="Path 533" d="M76.32,41.608c-.924-8.675-9.554-9.87-15.661-1.771" transform="translate(-0.329 -0.329)" fill="none" stroke="#fff" stroke-miterlimit="10" stroke-width="1.5"/>
        <path id="Path_534" data-name="Path 534" d="M80.308,28.287c-.924-8.675-8.364-3.983-10.09-1.461" transform="translate(-0.329 -0.329)" fill="none" stroke="#fff" stroke-miterlimit="10" stroke-width="1.5"/>
        <path id="Path_535" data-name="Path 535" d="M89.853,34.2c-2.142-6.662-5.695-7.9-9.811-4.847" transform="translate(-0.329 -0.329)" fill="none" stroke="#fff" stroke-miterlimit="10" stroke-width="1.5"/>
        <path id="Path_536" data-name="Path 536" d="M71.187,25.468c.291-7.092-1.633-9.661-6.944-9.13" transform="translate(-0.329 -0.329)" fill="none" stroke="#fff" stroke-miterlimit="10" stroke-width="1.5"/>
        <path id="Path_537" data-name="Path 537" d="M64.111,16.338c2.78-8.067-1.461-10.489-4.647-12.215" transform="translate(-0.329 -0.329)" fill="none" stroke="#fff" stroke-miterlimit="10" stroke-width="1.5"/>
        <path id="Path_538" data-name="Path 538" d="M55.348,47.006c.978-7.48-2.512-15.938-14.215-15.916" transform="translate(-0.329 -0.329)" fill="none" stroke="#fff" stroke-miterlimit="10" stroke-width="1.5"/>
        <path id="Path_539" data-name="Path 539" d="M72.342,54.309c-.015-7.212-7.037-12.746-16.33-8.1" transform="translate(-0.329 -0.329)" fill="none" stroke="#fff" stroke-miterlimit="10" stroke-width="1.5"/>
        <path id="Path_540" data-name="Path 540" d="M25.21,40.9C27.99,32.832,28.2,11.928,11.575,8.976" transform="translate(-0.329 -0.329)" fill="none" stroke="#fff" stroke-miterlimit="10" stroke-width="1.5"/>
        <path id="Path_541" data-name="Path 541" d="M46.055,27.888c2.78-8.066,2.756-20.82-10.091-21.242" transform="translate(-0.329 -0.329)" fill="none" stroke="#fff" stroke-miterlimit="10" stroke-width="1.5"/>
      </g>
    </g>
    <g id="Artwork_10" data-name="Artwork 10" transform="translate(100 150)">
      <g id="Group_423" data-name="Group 423" transform="translate(-75 -70.141)">
        <path id="Path_1301" data-name="Path 1301" d="M154.8,39.632c-1.854-6.629-8.137-22.078-26.547-22.8,0,0-3.682-5.983-19.328-4.6-.073-3-17.794-8.089-25.371-.875C76.075,3.891,58.077,9.035,58,12.06c-15.647-1.381-19.328,4.6-19.328,4.6A27.352,27.352,0,0,0,18.188,26.821c-4.259,2.092-7.255,6.254-7.542,13.7a5.228,5.228,0,0,0-3.133,5.135l.423,5.877A12.8,12.8,0,0,0,15.089,62.05a5.118,5.118,0,0,0,.026.609c1.08,9.993,3.217,31.314,4.6,55.139-1.439,39.562,126.146,39.562,128.064-1.2,1.261-26.8,2.315-45.562,2.889-55.275a7.465,7.465,0,0,0-.01-1.016A11.885,11.885,0,0,0,157.5,49.629V44.172A5.2,5.2,0,0,0,154.8,39.632Z" transform="translate(-7.5 -7.04)" stroke="#000" stroke-miterlimit="10" stroke-width="5.108"/>
        <g id="Group_422" data-name="Group 422">
          <path id="Path_1302" data-name="Path 1302" d="M132.717,15.481s-3.682-5.983-19.328-4.6c-.073-3-17.794-8.089-25.371-.875-7.475-7.463-25.473-2.32-25.546.706-15.647-1.381-19.328,4.6-19.328,4.6-23.47.92-28.868,27.1-28.868,27.1,20.694,24.052,51.832,20,73.269,20.192l.288-.288c21.7.057,51.111,3.354,72.115-21.058C159.949,41.26,156.187,16.4,132.717,15.481Z" transform="translate(-11.968 -6.149)" fill="#fff" stroke="#000" stroke-miterlimit="10" stroke-width="1.362"/>
          <path id="Path_1303" data-name="Path 1303" d="M29.8,153.341c1.08,9.993,3.217,31.314,4.6,55.139-1.439,39.562,126.146,39.562,128.064-1.2,1.261-26.8,2.315-45.562,2.89-55.275.237-4.014-2.758-7.131-5.872-6.1C142.56,151.5,97.045,169.092,33.8,148.89,31.583,148.181,29.5,150.505,29.8,153.341Z" transform="translate(-22.187 -98.181)" fill="#fff" stroke="#000" stroke-miterlimit="10" stroke-width="1.362"/>
          <path id="Path_1304" data-name="Path 1304" d="M218.38,49.126H195.993V39.718c-.6-8.349,22.507-7.879,22.387,0Z" transform="translate(-131.795 -24.272)" fill="#fff" stroke="#000" stroke-miterlimit="10" stroke-width="1.362"/>
          <ellipse id="Ellipse_41" data-name="Ellipse 41" cx="10.785" cy="3.19" rx="10.785" ry="3.19" transform="translate(64.775 9.331)" fill="#fff" stroke="#000" stroke-miterlimit="10" stroke-width="1.362"/>
          <g id="Group_420" data-name="Group 420" transform="translate(3.122 17.524)">
            <path id="Path_1305" data-name="Path 1305" d="M57.881,63.855S14.14,43.142,16.783,77.14c3.025,4.133,16.134,5.339,26.9,7.224C43.687,84.363,45.12,68.484,57.881,63.855Z" transform="translate(-16.668 -57.607)" fill="#fff" stroke="#000" stroke-miterlimit="10" stroke-width="1.362"/>
            <path id="Path_1306" data-name="Path 1306" d="M91.509,72.627s-34.328-17.946-38.6,13.512c4.8,7.674,13.658,5.549,24.407,7C77.315,93.136,78.748,77.256,91.509,72.627Z" transform="translate(-40.567 -64.151)" fill="#fff" stroke="#000" stroke-miterlimit="10" stroke-width="1.362"/>
            <path id="Path_1307" data-name="Path 1307" d="M135.57,68.805S95.759,57.668,98.157,92.671c10.791,3.884,20.891,6.242,27.819,1.591C125.977,94.262,124.058,76.761,135.57,68.805Z" transform="translate(-70.338 -63.881)" fill="#fff" stroke="#000" stroke-miterlimit="10" stroke-width="1.362"/>
          </g>
          <g id="Group_421" data-name="Group 421" transform="translate(80.732 17.524)">
            <path id="Path_1308" data-name="Path 1308" d="M315.1,63.855s43.741-20.713,41.1,13.285c-3.025,4.133-16.134,5.339-26.9,7.224C329.292,84.363,327.858,68.484,315.1,63.855Z" transform="translate(-291.078 -57.607)" fill="#fff" stroke="#000" stroke-miterlimit="10" stroke-width="1.362"/>
            <path id="Path_1309" data-name="Path 1309" d="M286.527,72.627s34.328-17.946,38.6,13.512c-4.8,7.674-13.658,5.549-24.407,7C300.721,93.136,299.288,77.256,286.527,72.627Z" transform="translate(-272.238 -64.151)" fill="#fff" stroke="#000" stroke-miterlimit="10" stroke-width="1.362"/>
            <path id="Path_1310" data-name="Path 1310" d="M244.567,68.805s39.81-11.138,37.412,23.866c-10.791,3.884-20.891,6.242-27.819,1.591C254.16,94.262,256.078,76.761,244.567,68.805Z" transform="translate(-244.567 -63.881)" fill="#fff" stroke="#000" stroke-miterlimit="10" stroke-width="1.362"/>
          </g>
          <path id="Path_1311" data-name="Path 1311" d="M183.663,72.067s4.264,2.049,12.378,0c0,0,12.729,1.7,12.152,18.432a120.69,120.69,0,0,1-37.211,0S173.555,73.827,183.663,72.067Z" transform="translate(-115.309 -49.619)" fill="#fff" stroke="#000" stroke-miterlimit="10" stroke-width="1.362"/>
          <path id="Path_1312" data-name="Path 1312" d="M7.514,105.145l.423,5.877a12.837,12.837,0,0,0,8.389,11.065c28.281,10.535,95.85,10.448,132.831-1.678a11.946,11.946,0,0,0,8.343-11.287v-5.457a5.4,5.4,0,0,0-6.937-5.043q-69.706,19.385-136.172,1.1A5.373,5.373,0,0,0,7.514,105.145Z" transform="translate(-7.5 -66.993)" fill="#fff" stroke="#000" stroke-miterlimit="10" stroke-width="1.362"/>
        </g>
        <path id="Path_1313" data-name="Path 1313" d="M256.012,221.849a11.711,11.711,0,1,1,20.58,11.182,3.371,3.371,0,1,1-5.924-3.218,4.981,4.981,0,0,0-8.754-4.757,3.359,3.359,0,1,1-5.9-3.207" transform="translate(-171.115 -144.363)"/>
        <path id="Path_1314" data-name="Path 1314" d="M143.321,220.439a11.711,11.711,0,0,1,22,8.037,3.371,3.371,0,1,1-6.332-2.313,4.982,4.982,0,0,0-9.358-3.418,3.358,3.358,0,1,1-6.309-2.3" transform="translate(-96.934 -142.392)"/>
        <ellipse id="Ellipse_42" data-name="Ellipse 42" cx="12.039" cy="16.845" rx="12.039" ry="16.845" transform="translate(64.631 96.58)"/>
      </g>
    </g>
  </g>
</svg>
