<svg xmlns="http://www.w3.org/2000/svg" xmlns:xlink="http://www.w3.org/1999/xlink" width="200" height="300" viewBox="0 0 200 300">
  <defs>
    <clipPath id="clip-path">
      <rect id="Rectangle_61" data-name="Rectangle 61" width="61.263" height="61.263" transform="translate(0 12.002) rotate(-11.297)" fill="none"/>
    </clipPath>
    <clipPath id="clip-path-4">
      <rect id="Rectangle_55" data-name="Rectangle 55" width="43.696" height="8.068" transform="translate(0 8.56) rotate(-11.297)" fill="none"/>
    </clipPath>
    <clipPath id="clip-path-5">
      <rect id="Rectangle_56" data-name="Rectangle 56" width="47.506" height="11.277" transform="translate(0 9.307) rotate(-11.297)" fill="none"/>
    </clipPath>
    <clipPath id="clip-path-6">
      <rect id="Rectangle_57" data-name="Rectangle 57" width="23.652" height="5.131" transform="translate(0 4.633) rotate(-11.297)" fill="none"/>
    </clipPath>
    <clipPath id="clip-path-7">
      <rect id="Rectangle_58" data-name="Rectangle 58" width="13.324" height="14.284" transform="translate(0 2.61) rotate(-11.297)" fill="none"/>
    </clipPath>
    <clipPath id="clip-path-8">
      <rect id="Rectangle_73" data-name="Rectangle 73" width="57.65" height="57.65" transform="translate(0 56.632) rotate(-79.215)" fill="none"/>
    </clipPath>
    <clipPath id="clip-path-11">
      <rect id="Rectangle_62" data-name="Rectangle 62" width="12.112" height="21.275" transform="translate(0 11.898) rotate(-79.215)" fill="none"/>
    </clipPath>
    <clipPath id="clip-path-12">
      <rect id="Rectangle_63" data-name="Rectangle 63" width="0.906" height="2.197" transform="translate(0 0.89) rotate(-79.215)" fill="none"/>
    </clipPath>
    <clipPath id="clip-path-13">
      <rect id="Rectangle_64" data-name="Rectangle 64" width="3.322" height="2.773" transform="translate(0 3.263) rotate(-79.215)" fill="none"/>
    </clipPath>
    <clipPath id="clip-path-14">
      <rect id="Rectangle_65" data-name="Rectangle 65" width="7.735" height="41.876" transform="translate(0 7.598) rotate(-79.215)" fill="none"/>
    </clipPath>
    <clipPath id="clip-path-15">
      <rect id="Rectangle_66" data-name="Rectangle 66" width="6.285" height="4.608" transform="translate(0 6.174) rotate(-79.215)" fill="none"/>
    </clipPath>
    <clipPath id="clip-path-16">
      <rect id="Rectangle_67" data-name="Rectangle 67" width="6.796" height="5.606" transform="translate(0 6.676) rotate(-79.215)" fill="none"/>
    </clipPath>
    <clipPath id="clip-path-17">
      <rect id="Rectangle_68" data-name="Rectangle 68" width="8.341" height="8.557" transform="translate(0 8.194) rotate(-79.215)" fill="none"/>
    </clipPath>
    <clipPath id="clip-path-18">
      <rect id="Rectangle_69" data-name="Rectangle 69" width="6.049" height="4.484" transform="translate(0 5.942) rotate(-79.215)" fill="none"/>
    </clipPath>
    <clipPath id="clip-path-19">
      <rect id="Rectangle_70" data-name="Rectangle 70" width="8.576" height="38.742" transform="translate(0 8.425) rotate(-79.215)" fill="none"/>
    </clipPath>
    <clipPath id="clip-path-20">
      <rect id="Rectangle_84" data-name="Rectangle 84" width="59.678" height="59.678" transform="translate(0 59.664) rotate(-88.759)" fill="none"/>
    </clipPath>
    <clipPath id="clip-path-24">
      <rect id="Rectangle_75" data-name="Rectangle 75" width="12.412" height="21.802" transform="translate(0 12.409) rotate(-88.759)" fill="none"/>
    </clipPath>
    <clipPath id="clip-path-25">
      <rect id="Rectangle_76" data-name="Rectangle 76" width="7.926" height="42.913" transform="translate(0 7.924) rotate(-88.759)" fill="none"/>
    </clipPath>
    <clipPath id="clip-path-26">
      <rect id="Rectangle_77" data-name="Rectangle 77" width="6.441" height="4.722" transform="translate(0 6.439) rotate(-88.759)" fill="none"/>
    </clipPath>
    <clipPath id="clip-path-27">
      <rect id="Rectangle_78" data-name="Rectangle 78" width="6.964" height="5.745" transform="translate(0 6.963) rotate(-88.759)" fill="none"/>
    </clipPath>
    <clipPath id="clip-path-28">
      <rect id="Rectangle_79" data-name="Rectangle 79" width="8.548" height="8.769" transform="translate(0 8.546) rotate(-88.759)" fill="none"/>
    </clipPath>
    <clipPath id="clip-path-29">
      <rect id="Rectangle_80" data-name="Rectangle 80" width="6.198" height="4.595" transform="translate(0 6.197) rotate(-88.759)" fill="none"/>
    </clipPath>
    <clipPath id="clip-path-30">
      <rect id="Rectangle_81" data-name="Rectangle 81" width="8.789" height="39.701" transform="translate(0 8.787) rotate(-88.759)" fill="none"/>
    </clipPath>
    <clipPath id="clip-buckets">
      <rect width="200" height="300"/>
    </clipPath>
  </defs>
  <g id="buckets" clip-path="url(#clip-buckets)">
    <g id="Rectangle_9" data-name="Rectangle 9" fill="#333" stroke="#fff500" stroke-width="3">
      <rect width="200" height="300" rx="19" stroke="none"/>
      <rect x="1.5" y="1.5" width="197" height="297" rx="17.5" fill="none"/>
    </g>
    <g id="Artwork_16" data-name="Artwork 16" transform="matrix(-1, -0.017, 0.017, -1, 62.872, 235.055)" style="mix-blend-mode: overlay;isolation: isolate">
      <g id="Group_94" data-name="Group 94" transform="translate(-44.872 -50.726)">
        <path id="Path_446" data-name="Path 446" d="M90.024,5.506,89.613,97.87a3.9,3.9,0,0,1-6.98,2.4c-3.914-5.1-9.966-8.727-19.252-6.523a3.8,3.8,0,0,1-2.742-.389,3.908,3.908,0,0,1-1.789-2.129c-1.97-5.654-7.339-16.026-20.278-16.3a3.909,3.909,0,0,1-3.778-4.164c.441-6.988-.918-19.9-16.692-21.21a3.9,3.9,0,0,1-3.4-5.146c2.78-8.067,5.52-23.081-11.1-26.034A3.929,3.929,0,0,1,.631,13C1.6,10.644,2.319,7.812,1.636,5.4A3.928,3.928,0,0,1,5.385.329l80.8.42a3.912,3.912,0,0,1,3.866,4.343h0A3.579,3.579,0,0,0,90.024,5.506Z" transform="translate(-0.329 -0.329)" fill="none" stroke="#fff" stroke-miterlimit="10" stroke-width="1.5"/>
        <path id="Path_447" data-name="Path 447" d="M60.639,93.355" transform="translate(-0.329 -0.329)" fill="none" stroke="#fff" stroke-miterlimit="10" stroke-width="1.5"/>
        <line id="Line_21" data-name="Line 21" x1="27.659" y2="92.031" transform="translate(60.528 0.946)" fill="none" stroke="#fff" stroke-miterlimit="10" stroke-width="1.5"/>
        <line id="Line_22" data-name="Line 22" x1="52.301" y2="72.166" transform="translate(35.886 1.198)" fill="none" stroke="#fff" stroke-miterlimit="10" stroke-width="1.5"/>
        <line id="Line_23" data-name="Line 23" x1="73.172" y2="46.141" transform="translate(14.764 1.072)" fill="none" stroke="#fff" stroke-miterlimit="10" stroke-width="1.5"/>
        <line id="Line_24" data-name="Line 24" x1="85.991" y2="8.224" transform="translate(1.689 1.272)" fill="none" stroke="#fff" stroke-miterlimit="10" stroke-width="1.5"/>
        <path id="Path_448" data-name="Path 448" d="M35.433,34.659c2.78-8.066,4.805-24-11.816-26.951" transform="translate(-0.329 -0.329)" fill="none" stroke="#fff" stroke-miterlimit="10" stroke-width="1.5"/>
        <path id="Path_449" data-name="Path 449" d="M56.833,21.391c2.78-8.067,2.6-15.518-10.247-15.94" transform="translate(-0.329 -0.329)" fill="none" stroke="#fff" stroke-miterlimit="10" stroke-width="1.5"/>
        <path id="Path_450" data-name="Path 450" d="M46.867,59.222c.442-6.987-.917-19.9-16.692-21.209" transform="translate(-0.329 -0.329)" fill="none" stroke="#fff" stroke-miterlimit="10" stroke-width="1.5"/>
        <path id="Path_451" data-name="Path 451" d="M60.354,40.5c.291-7.092.044-14.247-11.069-14.558" transform="translate(-0.329 -0.329)" fill="none" stroke="#fff" stroke-miterlimit="10" stroke-width="1.5"/>
        <path id="Path_452" data-name="Path 452" d="M64.774,79.534a23.207,23.207,0,0,0-21.508-15.4" transform="translate(-0.329 -0.329)" fill="none" stroke="#fff" stroke-miterlimit="10" stroke-width="1.5"/>
        <path id="Path_453" data-name="Path 453" d="M89.6,84.712c-4.527-5.9-13.023-9.72-23.764-7.17" transform="translate(-0.329 -0.329)" fill="none" stroke="#fff" stroke-miterlimit="10" stroke-width="1.5"/>
        <path id="Path_454" data-name="Path 454" d="M89.734,65.062c-4.3-5.6-8.123-9.379-18.317-6.959" transform="translate(-0.329 -0.329)" fill="none" stroke="#fff" stroke-miterlimit="10" stroke-width="1.5"/>
        <path id="Path_455" data-name="Path 455" d="M69.421,64.664c-.015-7.211-4.342-14.884-17.127-12.878" transform="translate(-0.329 -0.329)" fill="none" stroke="#fff" stroke-miterlimit="10" stroke-width="1.5"/>
        <path id="Path_456" data-name="Path 456" d="M90.017,47.428c-2.141-6.662-3.867-8.52-13.294-6.794" transform="translate(-0.329 -0.329)" fill="none" stroke="#fff" stroke-miterlimit="10" stroke-width="1.5"/>
        <path id="Path_457" data-name="Path 457" d="M76.32,41.608c-.924-8.675-9.554-9.87-15.661-1.771" transform="translate(-0.329 -0.329)" fill="none" stroke="#fff" stroke-miterlimit="10" stroke-width="1.5"/>
        <path id="Path_458" data-name="Path 458" d="M80.308,28.287c-.924-8.675-8.364-3.983-10.09-1.461" transform="translate(-0.329 -0.329)" fill="none" stroke="#fff" stroke-miterlimit="10" stroke-width="1.5"/>
        <path id="Path_459" data-name="Path 459" d="M89.853,34.2c-2.142-6.662-5.695-7.9-9.811-4.847" transform="translate(-0.329 -0.329)" fill="none" stroke="#fff" stroke-miterlimit="10" stroke-width="1.5"/>
        <path id="Path_460" data-name="Path 460" d="M71.187,25.468c.291-7.092-1.633-9.661-6.944-9.13" transform="translate(-0.329 -0.329)" fill="none" stroke="#fff" stroke-miterlimit="10" stroke-width="1.5"/>
        <path id="Path_461" data-name="Path 461" d="M64.111,16.338c2.78-8.067-1.461-10.489-4.647-12.215" transform="translate(-0.329 -0.329)" fill="none" stroke="#fff" stroke-miterlimit="10" stroke-width="1.5"/>
        <path id="Path_462" data-name="Path 462" d="M55.348,47.006c.978-7.48-2.512-15.938-14.215-15.916" transform="translate(-0.329 -0.329)" fill="none" stroke="#fff" stroke-miterlimit="10" stroke-width="1.5"/>
        <path id="Path_463" data-name="Path 463" d="M72.342,54.309c-.015-7.212-7.037-12.746-16.33-8.1" transform="translate(-0.329 -0.329)" fill="none" stroke="#fff" stroke-miterlimit="10" stroke-width="1.5"/>
        <path id="Path_464" data-name="Path 464" d="M25.21,40.9C27.99,32.832,28.2,11.928,11.575,8.976" transform="translate(-0.329 -0.329)" fill="none" stroke="#fff" stroke-miterlimit="10" stroke-width="1.5"/>
        <path id="Path_465" data-name="Path 465" d="M46.055,27.888c2.78-8.066,2.756-20.82-10.091-21.242" transform="translate(-0.329 -0.329)" fill="none" stroke="#fff" stroke-miterlimit="10" stroke-width="1.5"/>
      </g>
    </g>
    <g id="Artwork_16-2" data-name="Artwork 16" transform="translate(139.872 65.055)" style="mix-blend-mode: overlay;isolation: isolate">
      <g id="Group_102" data-name="Group 102" transform="translate(-44.872 -50.726)">
        <path id="Path_522" data-name="Path 522" d="M90.024,5.506,89.613,97.87a3.9,3.9,0,0,1-6.98,2.4c-3.914-5.1-9.966-8.727-19.252-6.523a3.8,3.8,0,0,1-2.742-.389,3.908,3.908,0,0,1-1.789-2.129c-1.97-5.654-7.339-16.026-20.278-16.3a3.909,3.909,0,0,1-3.778-4.164c.441-6.988-.918-19.9-16.692-21.21a3.9,3.9,0,0,1-3.4-5.146c2.78-8.067,5.52-23.081-11.1-26.034A3.929,3.929,0,0,1,.631,13C1.6,10.644,2.319,7.812,1.636,5.4A3.928,3.928,0,0,1,5.385.329l80.8.42a3.912,3.912,0,0,1,3.866,4.343h0A3.579,3.579,0,0,0,90.024,5.506Z" transform="translate(-0.329 -0.329)" fill="none" stroke="#fff" stroke-miterlimit="10" stroke-width="1.5"/>
        <path id="Path_523" data-name="Path 523" d="M60.639,93.355" transform="translate(-0.329 -0.329)" fill="none" stroke="#fff" stroke-miterlimit="10" stroke-width="1.5"/>
        <line id="Line_33" data-name="Line 33" x1="27.659" y2="92.031" transform="translate(60.528 0.946)" fill="none" stroke="#fff" stroke-miterlimit="10" stroke-width="1.5"/>
        <line id="Line_34" data-name="Line 34" x1="52.301" y2="72.166" transform="translate(35.886 1.198)" fill="none" stroke="#fff" stroke-miterlimit="10" stroke-width="1.5"/>
        <line id="Line_35" data-name="Line 35" x1="73.172" y2="46.141" transform="translate(14.764 1.072)" fill="none" stroke="#fff" stroke-miterlimit="10" stroke-width="1.5"/>
        <line id="Line_36" data-name="Line 36" x1="85.991" y2="8.224" transform="translate(1.689 1.272)" fill="none" stroke="#fff" stroke-miterlimit="10" stroke-width="1.5"/>
        <path id="Path_524" data-name="Path 524" d="M35.433,34.659c2.78-8.066,4.805-24-11.816-26.951" transform="translate(-0.329 -0.329)" fill="none" stroke="#fff" stroke-miterlimit="10" stroke-width="1.5"/>
        <path id="Path_525" data-name="Path 525" d="M56.833,21.391c2.78-8.067,2.6-15.518-10.247-15.94" transform="translate(-0.329 -0.329)" fill="none" stroke="#fff" stroke-miterlimit="10" stroke-width="1.5"/>
        <path id="Path_526" data-name="Path 526" d="M46.867,59.222c.442-6.987-.917-19.9-16.692-21.209" transform="translate(-0.329 -0.329)" fill="none" stroke="#fff" stroke-miterlimit="10" stroke-width="1.5"/>
        <path id="Path_527" data-name="Path 527" d="M60.354,40.5c.291-7.092.044-14.247-11.069-14.558" transform="translate(-0.329 -0.329)" fill="none" stroke="#fff" stroke-miterlimit="10" stroke-width="1.5"/>
        <path id="Path_528" data-name="Path 528" d="M64.774,79.534a23.207,23.207,0,0,0-21.508-15.4" transform="translate(-0.329 -0.329)" fill="none" stroke="#fff" stroke-miterlimit="10" stroke-width="1.5"/>
        <path id="Path_529" data-name="Path 529" d="M89.6,84.712c-4.527-5.9-13.023-9.72-23.764-7.17" transform="translate(-0.329 -0.329)" fill="none" stroke="#fff" stroke-miterlimit="10" stroke-width="1.5"/>
        <path id="Path_530" data-name="Path 530" d="M89.734,65.062c-4.3-5.6-8.123-9.379-18.317-6.959" transform="translate(-0.329 -0.329)" fill="none" stroke="#fff" stroke-miterlimit="10" stroke-width="1.5"/>
        <path id="Path_531" data-name="Path 531" d="M69.421,64.664c-.015-7.211-4.342-14.884-17.127-12.878" transform="translate(-0.329 -0.329)" fill="none" stroke="#fff" stroke-miterlimit="10" stroke-width="1.5"/>
        <path id="Path_532" data-name="Path 532" d="M90.017,47.428c-2.141-6.662-3.867-8.52-13.294-6.794" transform="translate(-0.329 -0.329)" fill="none" stroke="#fff" stroke-miterlimit="10" stroke-width="1.5"/>
        <path id="Path_533" data-name="Path 533" d="M76.32,41.608c-.924-8.675-9.554-9.87-15.661-1.771" transform="translate(-0.329 -0.329)" fill="none" stroke="#fff" stroke-miterlimit="10" stroke-width="1.5"/>
        <path id="Path_534" data-name="Path 534" d="M80.308,28.287c-.924-8.675-8.364-3.983-10.09-1.461" transform="translate(-0.329 -0.329)" fill="none" stroke="#fff" stroke-miterlimit="10" stroke-width="1.5"/>
        <path id="Path_535" data-name="Path 535" d="M89.853,34.2c-2.142-6.662-5.695-7.9-9.811-4.847" transform="translate(-0.329 -0.329)" fill="none" stroke="#fff" stroke-miterlimit="10" stroke-width="1.5"/>
        <path id="Path_536" data-name="Path 536" d="M71.187,25.468c.291-7.092-1.633-9.661-6.944-9.13" transform="translate(-0.329 -0.329)" fill="none" stroke="#fff" stroke-miterlimit="10" stroke-width="1.5"/>
        <path id="Path_537" data-name="Path 537" d="M64.111,16.338c2.78-8.067-1.461-10.489-4.647-12.215" transform="translate(-0.329 -0.329)" fill="none" stroke="#fff" stroke-miterlimit="10" stroke-width="1.5"/>
        <path id="Path_538" data-name="Path 538" d="M55.348,47.006c.978-7.48-2.512-15.938-14.215-15.916" transform="translate(-0.329 -0.329)" fill="none" stroke="#fff" stroke-miterlimit="10" stroke-width="1.5"/>
        <path id="Path_539" data-name="Path 539" d="M72.342,54.309c-.015-7.212-7.037-12.746-16.33-8.1" transform="translate(-0.329 -0.329)" fill="none" stroke="#fff" stroke-miterlimit="10" stroke-width="1.5"/>
        <path id="Path_540" data-name="Path 540" d="M25.21,40.9C27.99,32.832,28.2,11.928,11.575,8.976" transform="translate(-0.329 -0.329)" fill="none" stroke="#fff" stroke-miterlimit="10" stroke-width="1.5"/>
        <path id="Path_541" data-name="Path 541" d="M46.055,27.888c2.78-8.066,2.756-20.82-10.091-21.242" transform="translate(-0.329 -0.329)" fill="none" stroke="#fff" stroke-miterlimit="10" stroke-width="1.5"/>
      </g>
    </g>
    <g id="Artwork_26" data-name="Artwork 26" transform="translate(100 150)">
      <g id="Group_206" data-name="Group 206" transform="translate(-87.941 -36.039)">
        <g id="Artwork_11" data-name="Artwork 11">
          <g id="Group_143" data-name="Group 143">
            <g id="Group_142" data-name="Group 142" clip-path="url(#clip-path)">
              <g id="Group_141" data-name="Group 141">
                <g id="Group_140" data-name="Group 140" clip-path="url(#clip-path)">
                  <g id="Group_139" data-name="Group 139">
                    <g id="Group_138" data-name="Group 138" clip-path="url(#clip-path)">
                      <path id="Path_685" data-name="Path 685" d="M26.788,57.867c1.534,4.915,2.894,9.916,4.305,14.881a11.129,11.129,0,0,0,1.487,3.578c1.314,1.809,3.579,2.655,5.768,3.111a35.779,35.779,0,0,0,13.78-.218,39.036,39.036,0,0,0,14.463-5.436c2.3-1.516,4.5-3.572,5.014-6.275a12.677,12.677,0,0,0-.148-4.223l-2.3-15.478a2.285,2.285,0,0,0,1.744-1.862,6.715,6.715,0,0,0-.163-2.694q-.3-1.517-.6-3.035a4.256,4.256,0,0,0-.573-1.648A4.034,4.034,0,0,0,66.9,37.242a32.484,32.484,0,0,0-10.126-.331,4.073,4.073,0,0,1-1.733-.018,3.812,3.812,0,0,1-1.168-.717l-6.922-5.492c-1.329-1.054-2.933-2.174-4.576-1.751-1.56.4-2.433,2.015-3.123,3.471l-3.293,6.949a4.064,4.064,0,0,1-.869,1.341,4.11,4.11,0,0,1-1.532.74c-3.738,1.2-7.5,2.555-10.653,4.9A3.562,3.562,0,0,0,21.483,48a3.9,3.9,0,0,0,.157,2.124q.409,1.543.818,3.085a7.415,7.415,0,0,0,1.155,2.769,2.529,2.529,0,0,0,2.655,1" transform="translate(-11.057 -14.91)"/>
                      <path id="Path_686" data-name="Path 686" d="M26.788,57.867c1.534,4.915,2.894,9.916,4.305,14.881a11.129,11.129,0,0,0,1.487,3.578c1.314,1.809,3.579,2.655,5.768,3.111a35.779,35.779,0,0,0,13.78-.218,39.036,39.036,0,0,0,14.463-5.436c2.3-1.516,4.5-3.572,5.014-6.275a12.677,12.677,0,0,0-.148-4.223l-2.3-15.478a2.285,2.285,0,0,0,1.744-1.862,6.715,6.715,0,0,0-.163-2.694q-.3-1.517-.6-3.035a4.256,4.256,0,0,0-.573-1.648A4.034,4.034,0,0,0,66.9,37.242a32.484,32.484,0,0,0-10.126-.331,4.073,4.073,0,0,1-1.733-.018,3.812,3.812,0,0,1-1.168-.717l-6.922-5.492c-1.329-1.054-2.933-2.174-4.576-1.751-1.56.4-2.433,2.015-3.123,3.471l-3.293,6.949a4.064,4.064,0,0,1-.869,1.341,4.11,4.11,0,0,1-1.532.74c-3.738,1.2-7.5,2.555-10.653,4.9A3.562,3.562,0,0,0,21.483,48a3.9,3.9,0,0,0,.157,2.124q.409,1.543.818,3.085a7.415,7.415,0,0,0,1.155,2.769,2.529,2.529,0,0,0,2.655,1" transform="translate(-11.057 -14.91)" fill="none" stroke="#000" stroke-miterlimit="10" stroke-width="2.28"/>
                      <path id="Path_687" data-name="Path 687" d="M42.153,16.215c11.513-2.3,22.768,5.409,25.23,17.237L70.7,32.79c-2.84-13.719-15.887-22.662-29.232-20S19.514,28.729,22.164,42.486l3.318-.663C23.21,29.956,30.64,18.515,42.153,16.215" transform="translate(-11.21 -6.371)"/>
                      <path id="Path_688" data-name="Path 688" d="M31.8,75.4c.965,3.057,2.972,9.588,4.9,16.95,2.017,12.461,42.317,4.41,40.377-8.456C75.8,75.432,74.965,69.5,74.539,66.425c-.176-1.27-1.317-2.056-2.236-1.537-5,2.818-18.276,11.19-39.514,8.864-.745-.082-1.259.777-.985,1.644" transform="translate(-16.403 -33.461)" fill="#6dc941"/>
                      <path id="Path_689" data-name="Path 689" d="M31.8,75.4c.965,3.057,2.972,9.588,4.9,16.95,2.017,12.461,42.317,4.41,40.377-8.456C75.8,75.432,74.965,69.5,74.539,66.425c-.176-1.27-1.317-2.056-2.236-1.537-5,2.818-18.276,11.19-39.514,8.864C32.044,73.67,31.53,74.529,31.8,75.4Z" transform="translate(-16.403 -33.461)" fill="none" stroke="#3aa800" stroke-miterlimit="10" stroke-width="0.538"/>
                      <path id="Path_690" data-name="Path 690" d="M60.935,96.039a3.772,3.772,0,0,1,7.4-1.478,1.086,1.086,0,1,1-2.13.426,1.6,1.6,0,0,0-3.147.628,1.082,1.082,0,1,1-2.121.424" transform="translate(-31.464 -47.317)"/>
                      <path id="Path_691" data-name="Path 691" d="M84.9,91.39a3.772,3.772,0,1,1,7.4-1.478,1.086,1.086,0,1,1-2.13.426,1.6,1.6,0,0,0-3.147.629,1.082,1.082,0,1,1-2.121.424" transform="translate(-43.854 -44.913)"/>
                      <path id="Path_692" data-name="Path 692" d="M80.835,102.021a14.372,14.372,0,0,1-3.617,2.65l.209,1.045a.586.586,0,0,1-.46.69l-1.7.34a.586.586,0,0,1-.69-.46l-.1-.5a16.764,16.764,0,0,1-4.222.715l.245,1.229a.656.656,0,0,1-.514.771l-1.565.313a.656.656,0,0,1-.772-.514l-.335-1.678a.66.66,0,0,1,0-.275,14.059,14.059,0,0,1-3.42-.946c-.6-.254-1.224.332-.939.856a10.374,10.374,0,0,0,8.257,5.666l-.2-.987a.474.474,0,0,1,.372-.557L73.312,110a.474.474,0,0,1,.558.371l.274,1.371a10.125,10.125,0,0,0,7.886-9.29.678.678,0,0,0-1.2-.43" transform="translate(-32.511 -52.624)"/>
                      <path id="Path_693" data-name="Path 693" d="M58.879,98.8l-1.653-.448a.448.448,0,0,1-.315-.55l.012-.043a.449.449,0,0,1,.55-.316l1.653.448a.449.449,0,0,1,.316.55l-.012.043a.448.448,0,0,1-.55.315" transform="translate(-29.413 -50.369)"/>
                      <path id="Path_694" data-name="Path 694" d="M60.345,96.421l-1.439-.39a.465.465,0,0,1-.327-.57l.038-.14a.465.465,0,0,1,.57-.327l1.439.39a.465.465,0,0,1,.327.57l-.038.14a.465.465,0,0,1-.57.327" transform="translate(-30.275 -49.1)"/>
                      <path id="Path_695" data-name="Path 695" d="M98.421,90.553,99.775,89.5a.448.448,0,0,0,.08-.629l-.028-.035a.448.448,0,0,0-.629-.08l-1.354,1.049a.448.448,0,0,0-.08.629l.027.035a.449.449,0,0,0,.629.08" transform="translate(-50.493 -45.837)"/>
                      <path id="Path_696" data-name="Path 696" d="M96.286,88.932l1.179-.913a.465.465,0,0,0,.083-.652l-.089-.114a.465.465,0,0,0-.652-.083l-1.179.913a.465.465,0,0,0-.083.652l.089.115a.465.465,0,0,0,.652.083" transform="translate(-49.343 -45.013)"/>
                      <path id="Path_697" data-name="Path 697" d="M37.908,97.462l-.042.012a1.253,1.253,0,0,1-1.542-.875L32.24,81.8a1.253,1.253,0,0,1,.875-1.542l.042-.012a1.253,1.253,0,0,1,1.542.875l4.084,14.8a1.254,1.254,0,0,1-.875,1.542" transform="translate(-16.644 -41.462)"/>
                      <path id="Path_698" data-name="Path 698" d="M42.918,92.772h0a1.254,1.254,0,0,1-1.542-.875L38.144,80.184a1.254,1.254,0,1,1,2.417-.667L43.793,91.23a1.254,1.254,0,0,1-.875,1.542" transform="translate(-19.696 -40.632)"/>
                      <path id="Path_699" data-name="Path 699" d="M47.409,86.185l-.025.007a1.253,1.253,0,0,1-1.542-.875l-1.863-6.751a1.254,1.254,0,0,1,.875-1.542l.025-.007a1.254,1.254,0,0,1,1.542.875l1.863,6.751a1.254,1.254,0,0,1-.875,1.542" transform="translate(-22.712 -39.792)"/>
                      <path id="Path_700" data-name="Path 700" d="M116.024,79.206l.043-.006a1.254,1.254,0,0,0,1.077-1.409l-2.03-15.217a1.254,1.254,0,0,0-1.409-1.077l-.043.006a1.254,1.254,0,0,0-1.077,1.408l2.03,15.217a1.253,1.253,0,0,0,1.409,1.077" transform="translate(-58.198 -31.787)"/>
                      <path id="Path_701" data-name="Path 701" d="M109.62,76.837h0a1.253,1.253,0,0,0,1.077-1.409L109.09,63.385a1.254,1.254,0,0,0-2.485.331l1.606,12.044a1.254,1.254,0,0,0,1.409,1.077" transform="translate(-55.106 -32.205)"/>
                      <path id="Path_702" data-name="Path 702" d="M102.886,72.539l.026,0a1.253,1.253,0,0,0,1.077-1.409l-.925-6.942a1.254,1.254,0,0,0-1.409-1.077l-.026,0a1.253,1.253,0,0,0-1.077,1.408l.926,6.942a1.254,1.254,0,0,0,1.408,1.077" transform="translate(-51.976 -32.619)"/>
                      <path id="Path_703" data-name="Path 703" d="M69.836,47.623c.6,3-9.783,7.611-23.192,10.29s-24.766,2.415-25.365-.589,9.783-7.611,23.192-10.29,24.765-2.415,25.365.589" transform="translate(-10.988 -23.359)" fill="#6dc941"/>
                      <ellipse id="Ellipse_23" data-name="Ellipse 23" cx="24.758" cy="5.547" rx="24.758" ry="5.547" transform="translate(9.204 28.525) rotate(-11.297)" fill="none" stroke="#3aa800" stroke-miterlimit="10" stroke-width="0.538"/>
                      <path id="Path_704" data-name="Path 704" d="M105.167,108.485l.379.493a.348.348,0,0,0,.3.136l.621-.033a.349.349,0,0,1,.307.546l-.352.513a.35.35,0,0,0-.038.323l.223.58a.349.349,0,0,1-.425.46l-.6-.176a.35.35,0,0,0-.319.064l-.484.392a.349.349,0,0,1-.569-.262l-.017-.622a.35.35,0,0,0-.159-.284l-.522-.339a.349.349,0,0,1,.073-.622l.586-.208a.351.351,0,0,0,.221-.239l.16-.6a.349.349,0,0,1,.614-.123" transform="translate(-53.43 -56.013)"/>
                      <g id="Group_128" data-name="Group 128" transform="translate(14.326 29.568)" style="mix-blend-mode: overlay;isolation: isolate">
                        <g id="Group_127" data-name="Group 127">
                          <g id="Group_126" data-name="Group 126" clip-path="url(#clip-path-4)">
                            <path id="Path_705" data-name="Path 705" d="M71.11,61.942C66.13,64.9,52.907,73.723,31.557,70.71c-.749-.106-1.254.818-.968,1.769.175.583.384,1.284.62,2.083.094.32,3.439.5,3.86.543,6.355.651,12.576-.771,18.884-1.717,5.93-.889,16.81-6.6,20.144-3.913.4.325-.439-3.772-.5-4.209-.083-.594-.158-1.129-.223-1.6-.193-1.388-1.348-2.27-2.264-1.725" transform="translate(-30.098 -61.506)"/>
                          </g>
                        </g>
                      </g>
                      <path id="Path_706" data-name="Path 706" d="M21.656,60.891l1.5,5.475a2.573,2.573,0,0,0,1.814,1.813c9.339,2.485,34.045-2.409,45.228-9.537a2.273,2.273,0,0,0,1.011-2.362l-1.08-5.405Q46.787,63.689,21.656,60.891" transform="translate(-11.195 -26.301)" fill="#6dc941"/>
                      <path id="Path_707" data-name="Path 707" d="M21.656,60.891l1.5,5.475a2.573,2.573,0,0,0,1.814,1.813c9.339,2.485,34.045-2.409,45.228-9.537a2.273,2.273,0,0,0,1.011-2.362l-1.08-5.405Q46.787,63.689,21.656,60.891Z" transform="translate(-11.195 -26.301)" fill="none" stroke="#3aa800" stroke-miterlimit="10" stroke-width="0.537"/>
                      <g id="Group_131" data-name="Group 131" transform="translate(11.988 24.489)" opacity="0.25" style="mix-blend-mode: overlay;isolation: isolate">
                        <g id="Group_130" data-name="Group 130">
                          <g id="Group_129" data-name="Group 129" clip-path="url(#clip-path-5)">
                            <path id="Path_708" data-name="Path 708" d="M57.856,57.347a36.594,36.594,0,0,1-7.951,7.264c-6.5,4.484-14.31,3.85-21.741,3.482C37.729,70.4,62.1,65.529,73.2,58.467A2.274,2.274,0,0,0,74.213,56.1l-1.08-5.4a88.93,88.93,0,0,1-15.277,6.648" transform="translate(-26.548 -50.699)" fill="#fff"/>
                          </g>
                        </g>
                      </g>
                      <path id="Path_709" data-name="Path 709" d="M49.356,44.024a39.694,39.694,0,0,0,20.132-4.358,1.051,1.051,0,0,0,.16-1.762L58.831,29.522a.992.992,0,0,0-.215-.129,3.778,3.778,0,0,0-3.944.754,1.067,1.067,0,0,0-.287.357L48.474,42.513A1.05,1.05,0,0,0,49.356,44.024Z" transform="translate(-25.003 -15.061)" fill="none" stroke="#3aa800" stroke-miterlimit="10" stroke-width="0.538"/>
                      <g id="Group_134" data-name="Group 134" transform="translate(20.796 22.356)" style="mix-blend-mode: overlay;isolation: isolate">
                        <g id="Group_133" data-name="Group 133">
                          <g id="Group_132" data-name="Group 132" clip-path="url(#clip-path-6)">
                            <path id="Path_710" data-name="Path 710" d="M44.889,54.911c.525.242.69.395,2.773.439a27.189,27.189,0,0,0,3.117-.2,45.7,45.7,0,0,0,8.3-1.591c2.442-.71,5.731-1.472,7.7-3.142.863-.73.3-2.478-1.015-2.769a2.186,2.186,0,0,0-.732-.026c-2.692.332-5.588.8-8.589,1.4a65.034,65.034,0,0,0-10.32,2.563c-1.1.376-2.5,1.492-2.054,2.6a2.045,2.045,0,0,0,.817.731" transform="translate(-43.536 -46.967)"/>
                          </g>
                        </g>
                      </g>
                      <path id="Path_711" data-name="Path 711" d="M48.211,44.4A41.191,41.191,0,0,0,69.1,39.88a1.09,1.09,0,0,0,.166-1.829l-11.224-8.7a1.056,1.056,0,0,0-.223-.134A3.921,3.921,0,0,0,53.728,30a1.107,1.107,0,0,0-.3.371L47.3,42.834a1.089,1.089,0,0,0,.915,1.568" transform="translate(-24.392 -14.967)" fill="#6dc941"/>
                      <path id="Path_712" data-name="Path 712" d="M48.211,44.4A41.191,41.191,0,0,0,69.1,39.88a1.09,1.09,0,0,0,.166-1.829l-11.224-8.7a1.056,1.056,0,0,0-.223-.134A3.921,3.921,0,0,0,53.728,30a1.107,1.107,0,0,0-.3.371L47.3,42.834A1.089,1.089,0,0,0,48.211,44.4Z" transform="translate(-24.392 -14.967)" fill="none" stroke="#3aa800" stroke-miterlimit="10" stroke-width="0.558"/>
                      <g id="Group_137" data-name="Group 137" transform="translate(29.534 12.394)" opacity="0.25" style="mix-blend-mode: overlay;isolation: isolate">
                        <g id="Group_136" data-name="Group 136">
                          <g id="Group_135" data-name="Group 135" clip-path="url(#clip-path-7)">
                            <path id="Path_713" data-name="Path 713" d="M76.053,38.248,65.779,30.286l-.016-.011a3.743,3.743,0,0,0-4.157.773.6.6,0,0,0-.152.2,8.565,8.565,0,0,1,1.783,1.271A7.568,7.568,0,0,1,65.794,38.6a26.575,26.575,0,0,1-.2,3.276,1.737,1.737,0,0,0,2.141,1.892,38.592,38.592,0,0,0,8.053-2.912,1.548,1.548,0,0,0,.269-2.612" transform="translate(-61.303 -27.882)" fill="#fff"/>
                          </g>
                        </g>
                      </g>
                      <path id="Path_714" data-name="Path 714" d="M21.656,60.891l1.5,5.475a2.573,2.573,0,0,0,1.814,1.813c9.339,2.485,34.045-2.409,45.228-9.537a2.273,2.273,0,0,0,1.011-2.362l-1.08-5.405Q46.787,63.689,21.656,60.891Z" transform="translate(-11.195 -26.301)" fill="none" stroke="#3aa800" stroke-miterlimit="10" stroke-width="0.537"/>
                      <path id="Path_715" data-name="Path 715" d="M48.211,44.4A41.191,41.191,0,0,0,69.1,39.88a1.09,1.09,0,0,0,.166-1.829l-11.224-8.7a1.056,1.056,0,0,0-.223-.134A3.921,3.921,0,0,0,53.728,30a1.107,1.107,0,0,0-.3.371L47.3,42.834A1.089,1.089,0,0,0,48.211,44.4Z" transform="translate(-24.392 -14.967)" fill="none" stroke="#3aa800" stroke-miterlimit="10" stroke-width="0.558"/>
                    </g>
                  </g>
                </g>
              </g>
            </g>
          </g>
        </g>
        <g id="Artwork_12" data-name="Artwork 12" transform="translate(108.462 4.48)">
          <g id="Group_176" data-name="Group 176">
            <g id="Group_175" data-name="Group 175" clip-path="url(#clip-path-8)">
              <g id="Group_174" data-name="Group 174">
                <g id="Group_173" data-name="Group 173" clip-path="url(#clip-path-8)">
                  <g id="Group_172" data-name="Group 172">
                    <g id="Group_171" data-name="Group 171" clip-path="url(#clip-path-8)">
                      <path id="Path_716" data-name="Path 716" d="M292.989,59.657c-.179-2.118-1.192-7.168-6.735-8.451,0,0-.771-2.027-5.6-2.513.152-.915-4.93-3.482-7.645-1.732-1.836-2.7-7.593-2.176-7.79-1.262-4.667-1.323-6.129.279-6.129.279a8.447,8.447,0,0,0-6.8,1.9c-1.413.389-2.562,1.478-3.079,3.719a1.615,1.615,0,0,0-1.247,1.377l-.211,1.808a3.952,3.952,0,0,0,1.562,3.6,1.56,1.56,0,0,0-.028.186c-.25,3.094-.833,9.685-1.79,16.993-2.722,11.918,35.981,19.291,38.918,7.037,1.931-8.056,3.335-13.688,4.071-16.6a2.366,2.366,0,0,0,.056-.309,3.671,3.671,0,0,0,2.691-2.845l.315-1.655a1.6,1.6,0,0,0-.558-1.534" transform="translate(-236.339 -27.724)"/>
                      <path id="Path_717" data-name="Path 717" d="M292.989,59.657c-.179-2.118-1.192-7.168-6.735-8.451,0,0-.771-2.027-5.6-2.513.152-.915-4.93-3.482-7.645-1.732-1.836-2.7-7.593-2.176-7.79-1.262-4.667-1.323-6.129.279-6.129.279a8.447,8.447,0,0,0-6.8,1.9c-1.413.389-2.562,1.478-3.079,3.719a1.615,1.615,0,0,0-1.247,1.377l-.211,1.808a3.952,3.952,0,0,0,1.562,3.6,1.56,1.56,0,0,0-.028.186c-.25,3.094-.833,9.685-1.79,16.993-2.722,11.918,35.981,19.291,38.918,7.037,1.931-8.056,3.335-13.688,4.071-16.6a2.366,2.366,0,0,0,.056-.309,3.671,3.671,0,0,0,2.691-2.845l.315-1.655A1.6,1.6,0,0,0,292.989,59.657Z" transform="translate(-236.339 -27.724)" fill="none" stroke="#000" stroke-miterlimit="10" stroke-width="2.066"/>
                      <path id="Path_718" data-name="Path 718" d="M274.85,24.628c11.057,2.107,18.277,13.011,16.2,24.407l3.187.607c2.422-13.211-5.946-25.858-18.762-28.3s-25.248,6.244-27.852,19.42l3.187.607c2.259-11.361,12.982-18.847,24.039-16.741" transform="translate(-236.475 -15.3)"/>
                      <path id="Path_719" data-name="Path 719" d="M287.762,51.207s-.771-2.027-5.6-2.513c.152-.915-4.93-3.482-7.646-1.731-1.836-2.7-7.593-2.176-7.79-1.263-4.667-1.323-6.129.279-6.129.279-7.173-1.077-10.323,6.554-10.323,6.554,4.888,8.492,14.568,9.062,21.06,10.359l.1-.071c6.579,1.271,15.311,3.971,23.093-2.221,0,0,.3-7.758-6.771-9.394" transform="translate(-237.846 -27.724)" fill="#f78e26"/>
                      <path id="Path_720" data-name="Path 720" d="M287.762,51.207s-.771-2.027-5.6-2.513c.152-.915-4.93-3.482-7.646-1.731-1.836-2.7-7.593-2.176-7.79-1.263-4.667-1.323-6.129.279-6.129.279-7.173-1.077-10.323,6.554-10.323,6.554,4.888,8.492,14.568,9.062,21.06,10.359l.1-.071c6.579,1.271,15.311,3.971,23.093-2.221C294.533,60.6,294.828,52.842,287.762,51.207Z" transform="translate(-237.846 -27.724)" fill="none" stroke="#fc5900" stroke-miterlimit="10" stroke-width="0.517"/>
                      <g id="Group_146" data-name="Group 146" transform="translate(14.154 16.718)" opacity="0.32" style="mix-blend-mode: overlay;isolation: isolate">
                        <g id="Group_145" data-name="Group 145">
                          <g id="Group_144" data-name="Group 144" clip-path="url(#clip-path-11)">
                            <path id="Path_721" data-name="Path 721" d="M277.19,52.074c-1.882-2.625-7.55-2.107-7.745-1.2-4.667-1.323-6.129.279-6.129.279a8.549,8.549,0,0,0-7.282,2.313,8.029,8.029,0,0,0,5.372,3.9s.772,2.028,5.6,2.511c-.151.915,4.932,3.48,7.646,1.728.043.063.089.124.137.184,1.792-3.044,3.151-6.219,2.4-9.712" transform="translate(-254.977 -47.117)"/>
                          </g>
                        </g>
                      </g>
                      <path id="Path_722" data-name="Path 722" d="M263.87,47.085l-.01.01a8.549,8.549,0,0,0-7.282,2.313,8.029,8.029,0,0,0,5.373,3.9s.4,1.045,2.409,1.814c.1-1.207.168-2.425.173-3.664A9.038,9.038,0,0,0,263.87,47.085Z" transform="translate(-241.105 -28.773)" fill="none" stroke="#fc5900" stroke-miterlimit="10" stroke-width="0.517"/>
                      <path id="Path_723" data-name="Path 723" d="M289.929,46.949c-1.54-2.148-5.614-2.191-7.152-1.639-.342.123-.558.274-.594.439l-.142-.038a21.558,21.558,0,0,1-2.514,9.015l.216.023c-.052.313.511.821,1.382,1.281,1.671.884,4.48,1.6,6.264.447.043.063.089.125.137.185C289.318,53.618,290.677,50.442,289.929,46.949Z" transform="translate(-252.968 -27.749)" fill="none" stroke="#fc5900" stroke-miterlimit="10" stroke-width="0.517"/>
                      <path id="Path_724" data-name="Path 724" d="M298.244,48.718c-.015-.021-.211.024-.225,0,.418.615-.43,6.6-2.222,9.647,1.969,2.486,7.462,1.967,7.654,1.075.017,0-1.991-.219-1.974-.214.979-3.053,3.661-6.045,4.26-9.162C304.877,48.99,300.639,47.173,298.244,48.718Z" transform="translate(-261.379 -29.357)" fill="none" stroke="#fc5900" stroke-miterlimit="10" stroke-width="0.517"/>
                      <path id="Path_725" data-name="Path 725" d="M297.3,57.669l-6.791-1.294.544-2.854c.3-2.567,7.283-1.09,6.791,1.294Z" transform="translate(-258.646 -31.452)" fill="#f78e26"/>
                      <path id="Path_726" data-name="Path 726" d="M297.3,57.669l-6.791-1.294.544-2.854c.3-2.567,7.283-1.09,6.791,1.294Z" transform="translate(-258.646 -31.452)" fill="none" stroke="#fc5900" stroke-miterlimit="10" stroke-width="0.517"/>
                      <path id="Path_727" data-name="Path 727" d="M298.884,53.878c-.1.534-1.649.689-3.456.344s-3.189-1.056-3.087-1.591,1.649-.689,3.456-.344,3.189,1.056,3.087,1.591" transform="translate(-259.59 -31.415)" fill="#f78e26"/>
                      <path id="Path_728" data-name="Path 728" d="M298.884,53.878c-.1.534-1.649.689-3.456.344s-3.189-1.056-3.087-1.591,1.649-.689,3.456-.344S298.986,53.343,298.884,53.878Z" transform="translate(-259.59 -31.415)" fill="none" stroke="#fc5900" stroke-miterlimit="10" stroke-width="0.517"/>
                      <g id="Group_149" data-name="Group 149" transform="translate(36.439 21.553)" opacity="0.25" style="mix-blend-mode: overlay;isolation: isolate">
                        <g id="Group_148" data-name="Group 148">
                          <g id="Group_147" data-name="Group 147" clip-path="url(#clip-path-12)">
                            <path id="Path_729" data-name="Path 729" d="M302.31,54.872c.035-.186-.469-.451-1.251-.692-.447-.138-.894.02-.912.317v.011c-.019.259.328.514.734.546.823.065,1.394,0,1.429-.182" transform="translate(-300.066 -54.016)" fill="#fff"/>
                          </g>
                        </g>
                      </g>
                      <g id="Group_152" data-name="Group 152" transform="translate(35.345 22.973)" opacity="0.25" style="mix-blend-mode: overlay;isolation: isolate">
                        <g id="Group_151" data-name="Group 151">
                          <g id="Group_150" data-name="Group 150" clip-path="url(#clip-path-13)">
                            <path id="Path_730" data-name="Path 730" d="M300.5,57.76a.413.413,0,0,0-.218.133A11.865,11.865,0,0,1,298.47,59.6a3.9,3.9,0,0,1-.4.275.414.414,0,0,0,.127.766l1.909.364a.418.418,0,0,0,.488-.332l.466-2.444v-.007a.413.413,0,0,0-.508-.474l-.057.014" transform="translate(-297.791 -57.299)" fill="#fff"/>
                          </g>
                        </g>
                      </g>
                      <path id="Path_731" data-name="Path 731" d="M325.664,58.112a50.619,50.619,0,0,1-2.277,6.455,1.631,1.631,0,0,0,.353-.259A8.549,8.549,0,0,0,331.013,62,8.024,8.024,0,0,0,325.664,58.112Z" transform="translate(-275.642 -34.522)" fill="none" stroke="#fc5900" stroke-miterlimit="10" stroke-width="0.517"/>
                      <path id="Path_732" data-name="Path 732" d="M249.286,71.832c-.25,3.094-.833,9.685-1.79,16.993-2.722,11.918,35.981,19.291,38.918,7.037,1.931-8.056,3.335-13.688,4.071-16.6.3-1.2-.425-2.322-1.429-2.19-5.458.72-20.282,3.425-38.3-6.358-.632-.343-1.4.241-1.47,1.119" transform="translate(-236.339 -40.984)" fill="#f78e26"/>
                      <path id="Path_733" data-name="Path 733" d="M249.286,71.832c-.25,3.094-.833,9.685-1.79,16.993-2.722,11.918,35.981,19.291,38.918,7.037,1.931-8.056,3.335-13.688,4.071-16.6.3-1.2-.425-2.322-1.429-2.19-5.458.72-20.282,3.425-38.3-6.358C250.124,70.369,249.357,70.953,249.286,71.832Z" transform="translate(-236.339 -40.984)" fill="none" stroke="#fc5900" stroke-miterlimit="10" stroke-width="0.517"/>
                      <path id="Path_734" data-name="Path 734" d="M264,54.105s-12.072-8.811-13.235,1.655c.679,1.429,4.585,2.552,7.743,3.746,0,0,1.352-4.734,5.491-5.4" transform="translate(-238.099 -30.657)" fill="#f78e26"/>
                      <path id="Path_735" data-name="Path 735" d="M264,54.105s-12.072-8.811-13.235,1.655c.679,1.429,4.585,2.552,7.743,3.746C258.508,59.506,259.861,54.772,264,54.105Z" transform="translate(-238.099 -30.657)" fill="none" stroke="#fc5900" stroke-miterlimit="10" stroke-width="0.517"/>
                      <path id="Path_736" data-name="Path 736" d="M270.64,57.372s-9.376-7.428-12.491,1.868c1.012,2.6,3.823,2.472,7,3.532,0,0,1.352-4.734,5.491-5.4" transform="translate(-241.916 -32.687)" fill="#f78e26"/>
                      <path id="Path_737" data-name="Path 737" d="M270.64,57.372s-9.376-7.428-12.491,1.868c1.012,2.6,3.823,2.472,7,3.532C265.149,62.773,266.5,58.039,270.64,57.372Z" transform="translate(-241.916 -32.687)" fill="none" stroke="#fc5900" stroke-miterlimit="10" stroke-width="0.517"/>
                      <path id="Path_738" data-name="Path 738" d="M279.784,58.256s-11.433-5.679-12.728,5.078c3.049,1.8,5.977,3.1,8.347,2.091,0,0,.429-5.42,4.381-7.168" transform="translate(-246.521 -33.822)" fill="#f78e26"/>
                      <path id="Path_739" data-name="Path 739" d="M279.784,58.256s-11.433-5.679-12.728,5.078c3.049,1.8,5.977,3.1,8.347,2.091C275.4,65.424,275.833,60,279.784,58.256Z" transform="translate(-246.521 -33.822)" fill="none" stroke="#fc5900" stroke-miterlimit="10" stroke-width="0.517"/>
                      <path id="Path_740" data-name="Path 740" d="M316.107,64.318s14.465-3.756,11.7,6.405c-1.157,1.079-5.2.687-8.579.637,0,0,.483-4.9-3.121-7.042" transform="translate(-271.879 -37.379)" fill="#f78e26"/>
                      <path id="Path_741" data-name="Path 741" d="M316.107,64.318s14.465-3.756,11.7,6.405c-1.157,1.079-5.2.687-8.579.637C319.228,71.359,319.71,66.46,316.107,64.318Z" transform="translate(-271.879 -37.379)" fill="none" stroke="#fc5900" stroke-miterlimit="10" stroke-width="0.517"/>
                      <path id="Path_742" data-name="Path 742" d="M309.73,64.644s11.45-3.46,10.929,6.33c-1.9,2.051-4.464.894-7.808.712,0,0,.483-4.9-3.121-7.042" transform="translate(-268.582 -37.592)" fill="#f78e26"/>
                      <path id="Path_743" data-name="Path 743" d="M309.73,64.644s11.45-3.46,10.929,6.33c-1.9,2.051-4.464.894-7.808.712C312.851,71.686,313.333,66.786,309.73,64.644Z" transform="translate(-268.582 -37.592)" fill="none" stroke="#fc5900" stroke-miterlimit="10" stroke-width="0.517"/>
                      <path id="Path_744" data-name="Path 744" d="M301.181,61.305s12.72-1.078,9.97,9.4c-3.5.555-6.7.686-8.531-1.124,0,0,1.593-5.2-1.439-8.277" transform="translate(-264.163 -36.156)" fill="#f78e26"/>
                      <path id="Path_745" data-name="Path 745" d="M301.181,61.305s12.72-1.078,9.97,9.4c-3.5.555-6.7.686-8.531-1.124C302.62,69.583,304.213,64.384,301.181,61.305Z" transform="translate(-264.163 -36.156)" fill="none" stroke="#fc5900" stroke-miterlimit="10" stroke-width="0.517"/>
                      <path id="Path_746" data-name="Path 746" d="M288.15,59.859a6.032,6.032,0,0,0,3.755.715s3.763,1.252,2.621,6.294a37.278,37.278,0,0,1-11.288-2.15s1.744-4.909,4.912-4.858" transform="translate(-254.887 -35.424)" fill="#f78e26"/>
                      <path id="Path_747" data-name="Path 747" d="M288.15,59.859a6.032,6.032,0,0,0,3.755.715s3.763,1.252,2.621,6.294a37.278,37.278,0,0,1-11.288-2.15S284.982,59.808,288.15,59.859Z" transform="translate(-254.887 -35.424)" fill="none" stroke="#fc5900" stroke-miterlimit="10" stroke-width="0.517"/>
                      <path id="Path_748" data-name="Path 748" d="M273.786,92.171c-1.657,2.095-4.171,2.891-5.588,1.771s-1.226-3.743.437-5.846c.475-.6,1.2-.836,1.608-.51s.356,1.074-.126,1.682c-.707.893-.79,2-.186,2.48s1.67.146,2.377-.747c.476-.6,1.2-.836,1.608-.51s.344,1.077-.131,1.678" transform="translate(-246.621 -49.683)"/>
                      <path id="Path_749" data-name="Path 749" d="M307.175,95.988c.357,2.509-.812,4.769-2.6,5.024s-3.542-1.579-3.9-4.1c-.1-.72.229-1.372.749-1.446s1.019.45,1.123,1.18c.152,1.069.893,1.847,1.655,1.738s1.263-1.063,1.111-2.133c-.1-.72.229-1.372.749-1.446s1.013.461,1.116,1.181" transform="translate(-263.891 -53.488)"/>
                      <path id="Path_750" data-name="Path 750" d="M286.543,98.38l-2.251,3.036c-.1.139-.071.366.054.39l4.37.846c.124.024.237-.171.2-.338l-.886-3.622c-.208-.848-.967-1.008-1.483-.313" transform="translate(-255.4 -55.114)"/>
                      <path id="Path_751" data-name="Path 751" d="M287.195,114.769a1.854,1.854,0,0,0,.136-2.8.257.257,0,0,0-.355,0l-1.156,1.1a1.3,1.3,0,0,1-2.084-.414l-.548-1.231a.255.255,0,0,0-.409-.081l-.078.074a1.3,1.3,0,0,1-2.083-.414l-.185-.416a.255.255,0,0,0-.441-.043l-.827,1.169c-.584.826-1.441.649-1.672-.346l-.378-1.628a.255.255,0,0,0-.456-.091l-1.024,1.424c-.581.808-1.437.631-1.672-.345l-.384-1.6a.255.255,0,0,0-.424-.126l-.418.4a1.3,1.3,0,0,1-2.083-.414.255.255,0,0,0-.409-.082l-.827.786a1.3,1.3,0,0,1-2.083-.414l-.528-1.187a.255.255,0,0,0-.366-.115,1.852,1.852,0,0,0-.687,2.391,25.758,25.758,0,0,0,1.309,2.348.257.257,0,0,0,.254.113,1.044,1.044,0,0,1,1.086.6l.712,1.553a.255.255,0,0,0,.41.076l.077-.075a1.3,1.3,0,0,1,2.089.39l.189.413a.255.255,0,0,0,.442.039l.813-1.179c.575-.833,1.434-.666,1.676.327l.4,1.623a.255.255,0,0,0,.457.086l1.008-1.435c.571-.814,1.43-.648,1.676.326l.4,1.594a.255.255,0,0,0,.425.121l.413-.4a1.3,1.3,0,0,1,2.088.391.255.255,0,0,0,.41.076l1.077-1.047a1.045,1.045,0,0,1,1.467.011.256.256,0,0,0,.317.038,26.138,26.138,0,0,0,2.247-1.58" transform="translate(-245.748 -60.277)"/>
                      <g id="Group_155" data-name="Group 155" transform="translate(12.011 26.936)" opacity="0.32" style="mix-blend-mode: overlay;isolation: isolate">
                        <g id="Group_154" data-name="Group 154">
                          <g id="Group_153" data-name="Group 153" clip-path="url(#clip-path-14)">
                            <path id="Path_752" data-name="Path 752" d="M291.073,73.663c-5.489.833-20.411,3.907-38.284-6.463-.627-.364-1.409.275-1.5,1.223-.054.581-.121,1.28-.2,2.074-.031.318,2.874,1.683,3.232,1.873,5.409,2.868,11.445,3.846,17.388,5.28,5.586,1.348,17.307.192,19.3,3.784.241.433.97-3.509,1.073-3.92.14-.557.266-1.06.378-1.5.329-1.3-.379-2.5-1.389-2.349" transform="translate(-250.279 -66.102)"/>
                          </g>
                        </g>
                      </g>
                      <g id="Group_158" data-name="Group 158" transform="translate(50.889 27.002)" opacity="0.25" style="mix-blend-mode: overlay;isolation: isolate">
                        <g id="Group_157" data-name="Group 157">
                          <g id="Group_156" data-name="Group 156" clip-path="url(#clip-path-15)">
                            <path id="Path_753" data-name="Path 753" d="M332.769,65.367a.439.439,0,0,0-.587.557c0,.011.009.021.012.031a10.513,10.513,0,0,1,.945,5.452.447.447,0,0,0,.434.5c.958.043,1.482.258,1.919.005a.424.424,0,0,0,.2-.26c.931-3.587-.726-5.413-2.92-6.283" transform="translate(-331.061 -65.257)" fill="#fff"/>
                          </g>
                        </g>
                      </g>
                      <g id="Group_161" data-name="Group 161" transform="translate(45.594 27.161)" opacity="0.25" style="mix-blend-mode: overlay;isolation: isolate">
                        <g id="Group_160" data-name="Group 160">
                          <g id="Group_159" data-name="Group 159" clip-path="url(#clip-path-16)">
                            <path id="Path_754" data-name="Path 754" d="M325.97,72.026c.215-4.651-1.635-6.021-4.172-6.389a.321.321,0,0,0-.284.535A4.249,4.249,0,0,1,322.542,68a14.494,14.494,0,0,1,.8,4.564.322.322,0,0,0,.285.326c1.183.129,1.345.306,2.259-.662a.326.326,0,0,0,.087-.206" transform="translate(-320.224 -65.571)" fill="#fff"/>
                          </g>
                        </g>
                      </g>
                      <g id="Group_164" data-name="Group 164" transform="translate(37.955 25.903)" opacity="0.25" style="mix-blend-mode: overlay;isolation: isolate">
                        <g id="Group_163" data-name="Group 163">
                          <g id="Group_162" data-name="Group 162" clip-path="url(#clip-path-17)">
                            <path id="Path_755" data-name="Path 755" d="M306.53,63.1a.289.289,0,0,0-.174.54,8.293,8.293,0,0,1,4.024,7.148c0,.412,0,.822-.022,1.229a.291.291,0,0,0,.317.3c.773-.07,1.579-.188,2.4-.333a.291.291,0,0,0,.233-.221c1.5-6.636-3.354-8.3-6.781-8.665" transform="translate(-304.716 -63.003)" fill="#fff"/>
                          </g>
                        </g>
                      </g>
                      <g id="Group_167" data-name="Group 167" transform="translate(34.544 25.508)" opacity="0.25" style="mix-blend-mode: overlay;isolation: isolate">
                        <g id="Group_166" data-name="Group 166">
                          <g id="Group_165" data-name="Group 165" clip-path="url(#clip-path-18)">
                            <path id="Path_756" data-name="Path 756" d="M298.315,62.479H298.3a.922.922,0,0,0-.969.962,7.736,7.736,0,0,1-.856,3.649.917.917,0,0,0,.632,1.294q1.308.284,2.659.489a.921.921,0,0,0,1.035-.715c.792-3.587-1.356-5.148-2.064-5.556a.929.929,0,0,0-.422-.122" transform="translate(-296.226 -62.286)" fill="#fff"/>
                          </g>
                        </g>
                      </g>
                      <path id="Path_757" data-name="Path 757" d="M248.355,60.021l-.211,1.807a3.964,3.964,0,0,0,1.906,3.842c7.97,4.83,28.472,8.708,40.392,7.167a3.689,3.689,0,0,0,3.183-2.942l.315-1.655a1.666,1.666,0,0,0-1.813-1.931,77.512,77.512,0,0,1-41.372-7.534,1.659,1.659,0,0,0-2.4,1.247" transform="translate(-236.731 -34.772)" fill="#f78e26"/>
                      <path id="Path_758" data-name="Path 758" d="M248.355,60.021l-.211,1.807a3.964,3.964,0,0,0,1.906,3.842c7.97,4.83,28.472,8.708,40.392,7.167a3.689,3.689,0,0,0,3.183-2.942l.315-1.655a1.666,1.666,0,0,0-1.813-1.931,77.512,77.512,0,0,1-41.372-7.534A1.659,1.659,0,0,0,248.355,60.021Z" transform="translate(-236.731 -34.772)" fill="none" stroke="#fc5900" stroke-miterlimit="10" stroke-width="0.517"/>
                      <g id="Group_170" data-name="Group 170" transform="translate(17.607 24.925)" opacity="0.25" style="mix-blend-mode: overlay;isolation: isolate">
                        <g id="Group_169" data-name="Group 169">
                          <g id="Group_168" data-name="Group 168" clip-path="url(#clip-path-19)">
                            <path id="Path_759" data-name="Path 759" d="M286.865,74.783a.129.129,0,0,0-.067.013,31.838,31.838,0,0,1-8.6,2.931c-5.8,1.159-11.166-.959-16.33-3.259a.121.121,0,1,0-.111.215c8.319,4.18,26.727,7.389,36.9,5.762A1.962,1.962,0,0,0,300.3,78.9l.407-2.138a1.726,1.726,0,0,0-1.881-1.97,79.512,79.512,0,0,1-11.961-.009" transform="translate(-261.352 -67.895)" fill="#fff"/>
                          </g>
                        </g>
                      </g>
                      <path id="Path_760" data-name="Path 760" d="M288.115,59.7a6.03,6.03,0,0,0,3.755.715s3.763,1.252,2.621,6.294a37.275,37.275,0,0,1-11.288-2.15S284.947,59.649,288.115,59.7Z" transform="translate(-254.869 -35.342)" fill="none" stroke="#fc5900" stroke-miterlimit="10" stroke-width="0.517"/>
                      <path id="Path_761" data-name="Path 761" d="M248.355,60.021l-.211,1.807a3.964,3.964,0,0,0,1.906,3.842c7.97,4.83,28.472,8.708,40.392,7.167a3.689,3.689,0,0,0,3.183-2.942l.315-1.655a1.666,1.666,0,0,0-1.813-1.931,77.512,77.512,0,0,1-41.372-7.534A1.659,1.659,0,0,0,248.355,60.021Z" transform="translate(-236.731 -34.772)" fill="none" stroke="#fc5900" stroke-miterlimit="10" stroke-width="0.517"/>
                    </g>
                  </g>
                </g>
              </g>
            </g>
          </g>
        </g>
        <g id="Artwork_13" data-name="Artwork 13" transform="translate(59.494 1.878)">
          <g id="Group_205" data-name="Group 205" transform="translate(0)">
            <g id="Group_204" data-name="Group 204" clip-path="url(#clip-path-20)">
              <g id="Group_203" data-name="Group 203">
                <g id="Group_202" data-name="Group 202" clip-path="url(#clip-path-20)">
                  <g id="Group_178" data-name="Group 178">
                    <g id="Group_177" data-name="Group 177" clip-path="url(#clip-path-20)">
                      <path id="Path_762" data-name="Path 762" d="M160.875,11.259c11.607.251,20.857,8.255,20.683,20.713l3.345.072c.217-14.446-10.5-24.091-23.95-24.383s-24.575,8.882-24.983,23.323l3.345.072c.366-12.454,9.953-20.05,21.56-19.8" transform="translate(-129.785 -5.836)"/>
                    </g>
                  </g>
                  <g id="Group_201" data-name="Group 201">
                    <g id="Group_200" data-name="Group 200" clip-path="url(#clip-path-20)">
                      <path id="Path_763" data-name="Path 763" d="M183.851,44.041c-.541-2.11-2.423-7.041-8.242-7.4,0,0-1.124-1.918-6.084-1.588,0-.951-5.574-2.681-8.021-.451-2.314-2.412-8.043-.909-8.087.048-4.941-.544-6.147,1.324-6.147,1.324a8.656,8.656,0,0,0-6.551,3.074c-1.362.633-2.338,1.929-2.48,4.281a1.655,1.655,0,0,0-1.026,1.6l.094,1.863a4.049,4.049,0,0,0,2.191,3.378,1.527,1.527,0,0,0,0,.193c.273,3.169.8,9.929,1.079,17.476-.726,12.507,39.639,13.381,40.525.5.583-8.469,1.045-14.4,1.293-17.468a2.312,2.312,0,0,0,0-.322,3.762,3.762,0,0,0,2.237-3.332l.037-1.726a1.644,1.644,0,0,0-.825-1.455" transform="translate(-130.427 -19.096)"/>
                      <path id="Path_764" data-name="Path 764" d="M183.851,44.041c-.541-2.11-2.423-7.041-8.242-7.4,0,0-1.124-1.918-6.084-1.588,0-.951-5.574-2.681-8.021-.451-2.314-2.412-8.043-.909-8.087.048-4.941-.544-6.147,1.324-6.147,1.324a8.656,8.656,0,0,0-6.551,3.074c-1.362.633-2.338,1.929-2.48,4.281a1.655,1.655,0,0,0-1.026,1.6l.094,1.863a4.049,4.049,0,0,0,2.191,3.378,1.527,1.527,0,0,0,0,.193c.273,3.169.8,9.929,1.079,17.476-.726,12.507,39.639,13.381,40.525.5.583-8.469,1.045-14.4,1.293-17.468a2.312,2.312,0,0,0,0-.322,3.762,3.762,0,0,0,2.237-3.332l.037-1.726A1.644,1.644,0,0,0,183.851,44.041Z" transform="translate(-130.427 -19.096)" fill="none" stroke="#000" stroke-miterlimit="10" stroke-width="2.155"/>
                      <path id="Path_765" data-name="Path 765" d="M176.394,36.452s-1.124-1.918-6.083-1.589c0-.95-5.575-2.681-8.021-.45-2.314-2.413-8.043-.909-8.087.048-4.941-.544-6.147,1.323-6.147,1.323-7.432.13-9.319,8.377-9.319,8.377,6.383,7.751,16.262,6.683,23.043,6.89l.093-.089c6.865.167,16.148,1.411,22.96-6.168,0,0-1.02-7.89-8.439-8.342" transform="translate(-131.216 -18.996)" fill="#fff"/>
                      <path id="Path_766" data-name="Path 766" d="M176.394,36.452s-1.124-1.918-6.083-1.589c0-.95-5.575-2.681-8.021-.45-2.314-2.413-8.043-.909-8.087.048-4.941-.544-6.147,1.323-6.147,1.323-7.432.13-9.319,8.377-9.319,8.377,6.383,7.751,16.262,6.683,23.043,6.89l.093-.089c6.865.167,16.148,1.411,22.96-6.168C184.833,44.794,183.814,36.9,176.394,36.452Z" transform="translate(-131.216 -18.996)" fill="none" stroke="#999" stroke-miterlimit="10" stroke-width="0.431"/>
                      <g id="Group_181" data-name="Group 181" transform="translate(9.901 13.917)" opacity="0.14" style="mix-blend-mode: multiply;isolation: isolate">
                        <g id="Group_180" data-name="Group 180">
                          <g id="Group_179" data-name="Group 179" clip-path="url(#clip-path-24)">
                            <path id="Path_767" data-name="Path 767" d="M165.069,34.722c-2.349-2.333-7.988-.846-8.031.1-4.941-.544-6.147,1.324-6.147,1.324a8.763,8.763,0,0,0-6.965,3.575,8.228,8.228,0,0,0,6.092,3.025s1.125,1.918,6.084,1.586c0,.95,5.575,2.679,8.021.447.055.057.111.111.17.163,1.294-3.38,2.128-6.82.778-10.223" transform="translate(-143.8 -33.102)"/>
                          </g>
                        </g>
                      </g>
                      <path id="Path_768" data-name="Path 768" d="M141.939,66.813c.273,3.169.8,9.929,1.079,17.477-.726,12.507,39.639,13.381,40.525.5.583-8.469,1.045-14.4,1.293-17.468.1-1.268-.824-2.275-1.816-1.97-5.394,1.654-19.914,6.908-39.785.083-.7-.239-1.373.482-1.3,1.381" transform="translate(-132.868 -35.634)" fill="#fff"/>
                      <path id="Path_769" data-name="Path 769" d="M141.939,66.813c.273,3.169.8,9.929,1.079,17.477-.726,12.507,39.639,13.381,40.525.5.583-8.469,1.045-14.4,1.293-17.468.1-1.268-.824-2.275-1.816-1.97-5.394,1.654-19.914,6.908-39.785.083C142.537,65.193,141.861,65.914,141.939,66.813Z" transform="translate(-132.868 -35.634)" fill="none" stroke="#999" stroke-miterlimit="10" stroke-width="0.431"/>
                      <path id="Path_770" data-name="Path 770" d="M186.52,44.374l-7.083-.154.064-2.976c-.132-2.646,7.175-2.339,7.083.153Z" transform="translate(-152.257 -22.242)" fill="#fff"/>
                      <path id="Path_771" data-name="Path 771" d="M186.52,44.374l-7.083-.154.064-2.976c-.132-2.646,7.175-2.339,7.083.153Z" transform="translate(-152.257 -22.242)" fill="none" stroke="gray" stroke-miterlimit="10" stroke-width="0.431"/>
                      <path id="Path_772" data-name="Path 772" d="M186.813,40.465c-.012.557-1.549.976-3.434.936s-3.4-.526-3.39-1.083,1.55-.976,3.434-.935,3.4.526,3.39,1.083" transform="translate(-152.542 -22.236)" fill="#fff"/>
                      <ellipse id="Ellipse_24" data-name="Ellipse 24" cx="1.01" cy="3.413" rx="1.01" ry="3.413" transform="translate(27.425 19.09) rotate(-88.759)" fill="none" stroke="gray" stroke-miterlimit="10" stroke-width="0.431"/>
                      <path id="Path_773" data-name="Path 773" d="M152.408,46.1s-13.7-6.853-13.094,3.922c.929,1.328,5.068,1.8,8.462,2.47,0,0,.562-5.014,4.631-6.391" transform="translate(-131.505 -24.601)" fill="#fff"/>
                      <path id="Path_774" data-name="Path 774" d="M152.408,46.1s-13.7-6.853-13.094,3.922c.929,1.328,5.068,1.8,8.462,2.47C147.777,52.493,148.339,47.478,152.408,46.1Z" transform="translate(-131.505 -24.601)" fill="none" stroke="gray" stroke-miterlimit="10" stroke-width="0.431"/>
                      <path id="Path_775" data-name="Path 775" d="M159.613,48.127s-10.737-5.913-12.305,4.01c1.465,2.461,4.283,1.849,7.674,2.381,0,0,.562-5.014,4.631-6.391" transform="translate(-135.647 -25.855)" fill="#fff"/>
                      <path id="Path_776" data-name="Path 776" d="M159.613,48.127s-10.737-5.913-12.305,4.01c1.465,2.461,4.283,1.849,7.674,2.381C154.982,54.518,155.544,49.5,159.613,48.127Z" transform="translate(-135.647 -25.855)" fill="none" stroke="gray" stroke-miterlimit="10" stroke-width="0.431"/>
                      <path id="Path_777" data-name="Path 777" d="M169.333,47.2s-12.519-3.8-12,7.294c3.387,1.3,6.567,2.118,8.79.694,0,0-.487-5.551,3.21-7.988" transform="translate(-140.822 -25.957)" fill="#fff"/>
                      <path id="Path_778" data-name="Path 778" d="M169.333,47.2s-12.519-3.8-12,7.294c3.387,1.3,6.567,2.118,8.79.694C166.123,55.191,165.637,49.641,169.333,47.2Z" transform="translate(-140.822 -25.957)" fill="none" stroke="gray" stroke-miterlimit="10" stroke-width="0.431"/>
                      <path id="Path_779" data-name="Path 779" d="M206.014,47.32s13.98-6.253,12.911,4.485c-.985,1.287-5.141,1.579-8.561,2.1,0,0-.345-5.034-4.35-6.586" transform="translate(-165.996 -25.405)" fill="#fff"/>
                      <path id="Path_780" data-name="Path 780" d="M206.014,47.32s13.98-6.253,12.911,4.485c-.985,1.287-5.141,1.579-8.561,2.1C210.364,53.905,210.019,48.872,206.014,47.32Z" transform="translate(-165.996 -25.405)" fill="none" stroke="#999" stroke-miterlimit="10" stroke-width="0.431"/>
                      <path id="Path_781" data-name="Path 781" d="M199.609,48.994s10.984-5.443,12.12,4.539c-1.57,2.4-4.359,1.662-7.77,2.047,0,0-.345-5.034-4.351-6.586" transform="translate(-162.685 -26.441)" fill="#fff"/>
                      <path id="Path_782" data-name="Path 782" d="M199.609,48.994s10.984-5.443,12.12,4.539c-1.57,2.4-4.359,1.662-7.77,2.047C203.96,55.579,203.615,50.545,199.609,48.994Z" transform="translate(-162.685 -26.441)" fill="none" stroke="#999" stroke-miterlimit="10" stroke-width="0.431"/>
                      <path id="Path_783" data-name="Path 783" d="M190.3,47.572s12.672-3.251,11.673,7.807c-3.441,1.155-6.652,1.832-8.812.313,0,0,.727-5.524-2.861-8.12" transform="translate(-157.873 -26.241)" fill="#fff"/>
                      <path id="Path_784" data-name="Path 784" d="M190.3,47.572s12.672-3.251,11.673,7.807c-3.441,1.155-6.652,1.832-8.812.313C193.161,55.692,193.887,50.168,190.3,47.572Z" transform="translate(-157.873 -26.241)" fill="none" stroke="#999" stroke-miterlimit="10" stroke-width="0.431"/>
                      <path id="Path_785" data-name="Path 785" d="M177.764,47.874a6.179,6.179,0,0,0,3.916.085s4.016.626,3.719,5.915a38.2,38.2,0,0,1-11.773-.255s.928-5.257,4.138-5.745" transform="translate(-149.253 -26.628)" fill="#fff"/>
                      <path id="Path_786" data-name="Path 786" d="M177.764,47.874a6.179,6.179,0,0,0,3.916.085s4.016.626,3.719,5.915a38.2,38.2,0,0,1-11.773-.255S174.554,48.361,177.764,47.874Z" transform="translate(-149.253 -26.628)" fill="none" stroke="gray" stroke-miterlimit="10" stroke-width="0.431"/>
                      <path id="Path_787" data-name="Path 787" d="M192.1,82.163a3.706,3.706,0,0,1,6.434,3.679,1.067,1.067,0,0,1-1.852-1.059,1.576,1.576,0,0,0-2.737-1.565,1.063,1.063,0,1,1-1.846-1.055" transform="translate(-158.731 -43.391)"/>
                      <path id="Path_788" data-name="Path 788" d="M166.939,81.454a3.706,3.706,0,0,1,6.9,2.693,1.067,1.067,0,0,1-1.988-.775,1.576,1.576,0,0,0-2.937-1.146,1.063,1.063,0,1,1-1.98-.772" transform="translate(-145.758 -42.769)"/>
                      <path id="Path_789" data-name="Path 789" d="M186.08,101.958c-.064,2.944-1.821,5.293-3.925,5.247s-3.757-2.469-3.693-5.412,1.821-5.293,3.924-5.247,3.758,2.469,3.694,5.412" transform="translate(-151.752 -51.79)"/>
                      <g id="Group_184" data-name="Group 184" transform="translate(8.675 27.014)" opacity="0.25" style="mix-blend-mode: multiply;isolation: isolate">
                        <g id="Group_183" data-name="Group 183">
                          <g id="Group_182" data-name="Group 182" clip-path="url(#clip-path-25)">
                            <path id="Path_790" data-name="Path 790" d="M182.479,61.709c-5.405,1.775-19.962,7.416-39.787-.026-.7-.261-1.376.517-1.305,1.49.044.6.095,1.314.15,2.13.022.327,3.19,1.213,3.585,1.344,5.953,1.979,12.22,1.942,18.47,2.381,5.874.412,17.522-2.747,20.145.544.317.4.384-3.711.418-4.143.047-.587.089-1.116.127-1.582.112-1.372-.808-2.464-1.8-2.138" transform="translate(-141.259 -60.754)"/>
                          </g>
                        </g>
                      </g>
                      <g id="Group_187" data-name="Group 187" transform="translate(47.303 20.512)" opacity="0.14" style="mix-blend-mode: multiply;isolation: isolate">
                        <g id="Group_186" data-name="Group 186">
                          <g id="Group_185" data-name="Group 185" clip-path="url(#clip-path-26)">
                            <path id="Path_791" data-name="Path 791" d="M221.932,46.385a.449.449,0,0,0-.5.663l.017.03a10.771,10.771,0,0,1,1.882,5.349.458.458,0,0,0,.523.428c.975-.12,1.542.009,1.94-.321a.436.436,0,0,0,.155-.3c.331-3.783-1.654-5.347-4.018-5.852" transform="translate(-221.236 -46.364)"/>
                          </g>
                        </g>
                      </g>
                      <g id="Group_190" data-name="Group 190" transform="translate(42.065 21.556)" opacity="0.14" style="mix-blend-mode: multiply;isolation: isolate">
                        <g id="Group_189" data-name="Group 189">
                          <g id="Group_188" data-name="Group 188" clip-path="url(#clip-path-27)">
                            <path id="Path_792" data-name="Path 792" d="M216.174,54.292c-.572-4.737-2.675-5.807-5.3-5.748a.329.329,0,0,0-.2.589,4.35,4.35,0,0,1,1.35,1.677,14.853,14.853,0,0,1,1.581,4.477.329.329,0,0,0,.344.28c1.217-.07,1.411.081,2.17-1.053a.328.328,0,0,0,.053-.222" transform="translate(-210.406 -48.529)"/>
                          </g>
                        </g>
                      </g>
                      <g id="Group_193" data-name="Group 193" transform="translate(34.389 21.534)" opacity="0.14" style="mix-blend-mode: multiply;isolation: isolate">
                        <g id="Group_192" data-name="Group 192">
                          <g id="Group_191" data-name="Group 191" clip-path="url(#clip-path-28)">
                            <path id="Path_793" data-name="Path 793" d="M195.009,48.556a.3.3,0,0,0-.085.575,8.5,8.5,0,0,1,5.281,6.54c.073.415.135.831.187,1.246a.3.3,0,0,0,.371.251c.769-.2,1.564-.458,2.372-.744a.3.3,0,0,0,.2-.263c.385-6.961-4.8-7.816-8.324-7.6" transform="translate(-194.55 -48.5)"/>
                          </g>
                        </g>
                      </g>
                      <g id="Group_196" data-name="Group 196" transform="translate(30.492 21.787)" opacity="0.14" style="mix-blend-mode: multiply;isolation: isolate">
                        <g id="Group_195" data-name="Group 195">
                          <g id="Group_194" data-name="Group 194" clip-path="url(#clip-path-29)">
                            <path id="Path_794" data-name="Path 794" d="M187.449,49.052l-.015,0a.944.944,0,0,0-.816,1.137,7.925,7.925,0,0,1-.245,3.832.94.94,0,0,0,.858,1.2q1.37.064,2.77.043a.943.943,0,0,0,.924-.9c.191-3.759-2.245-4.972-3.03-5.264a.957.957,0,0,0-.447-.052" transform="translate(-186.315 -49.02)"/>
                          </g>
                        </g>
                      </g>
                      <path id="Path_795" data-name="Path 795" d="M137.206,55.73l.094,1.862a4.062,4.062,0,0,0,2.578,3.558c8.875,3.527,30.253,3.962,42.036.379a3.78,3.78,0,0,0,2.717-3.514l.038-1.727a1.708,1.708,0,0,0-2.16-1.643,79.431,79.431,0,0,1-43.09-.584,1.7,1.7,0,0,0-2.213,1.668" transform="translate(-130.424 -29.788)" fill="#fff"/>
                      <path id="Path_796" data-name="Path 796" d="M137.206,55.73l.094,1.862a4.062,4.062,0,0,0,2.578,3.558c8.875,3.527,30.253,3.962,42.036.379a3.78,3.78,0,0,0,2.717-3.514l.038-1.727a1.708,1.708,0,0,0-2.16-1.643,79.431,79.431,0,0,1-43.09-.584A1.7,1.7,0,0,0,137.206,55.73Z" transform="translate(-130.424 -29.788)" fill="none" stroke="gray" stroke-miterlimit="10" stroke-width="0.431"/>
                      <g id="Group_199" data-name="Group 199" transform="translate(13.465 24.832)" opacity="0.14" style="mix-blend-mode: multiply;isolation: isolate">
                        <g id="Group_198" data-name="Group 198">
                          <g id="Group_197" data-name="Group 197" clip-path="url(#clip-path-30)">
                            <path id="Path_797" data-name="Path 797" d="M176.608,59.074a.131.131,0,0,0-.066.024,32.624,32.624,0,0,1-8.194,4.423c-5.665,2.157-11.446.928-17.056-.518a.124.124,0,1,0-.075.236c9.117,2.81,28.265,2.926,38.266-.447a2.009,2.009,0,0,0,1.4-1.841l.048-2.229a1.768,1.768,0,0,0-2.235-1.671,81.55,81.55,0,0,1-12.088,2.023" transform="translate(-151.086 -56.176)"/>
                          </g>
                        </g>
                      </g>
                    </g>
                  </g>
                </g>
              </g>
            </g>
          </g>
        </g>
      </g>
    </g>
  </g>
</svg>
