<svg xmlns="http://www.w3.org/2000/svg" xmlns:xlink="http://www.w3.org/1999/xlink" width="200" height="300" viewBox="0 0 200 300">
  <defs>
    <clipPath id="clip-punkin">
      <rect width="200" height="300"/>
    </clipPath>
  </defs>
  <g id="punkin" clip-path="url(#clip-punkin)">
    <g id="Rectangle_9" data-name="Rectangle 9" fill="#333" stroke="#87308b" stroke-width="3">
      <rect width="200" height="300" rx="19" stroke="none"/>
      <rect x="1.5" y="1.5" width="197" height="297" rx="17.5" fill="none"/>
    </g>
    <g id="Artwork_16" data-name="Artwork 16" transform="matrix(-1, -0.017, 0.017, -1, 62.872, 235.055)" style="mix-blend-mode: overlay;isolation: isolate">
      <g id="Group_94" data-name="Group 94" transform="translate(-44.872 -50.726)">
        <path id="Path_446" data-name="Path 446" d="M90.024,5.506,89.613,97.87a3.9,3.9,0,0,1-6.98,2.4c-3.914-5.1-9.966-8.727-19.252-6.523a3.8,3.8,0,0,1-2.742-.389,3.908,3.908,0,0,1-1.789-2.129c-1.97-5.654-7.339-16.026-20.278-16.3a3.909,3.909,0,0,1-3.778-4.164c.441-6.988-.918-19.9-16.692-21.21a3.9,3.9,0,0,1-3.4-5.146c2.78-8.067,5.52-23.081-11.1-26.034A3.929,3.929,0,0,1,.631,13C1.6,10.644,2.319,7.812,1.636,5.4A3.928,3.928,0,0,1,5.385.329l80.8.42a3.912,3.912,0,0,1,3.866,4.343h0A3.579,3.579,0,0,0,90.024,5.506Z" transform="translate(-0.329 -0.329)" fill="none" stroke="#fff" stroke-miterlimit="10" stroke-width="1.5"/>
        <path id="Path_447" data-name="Path 447" d="M60.639,93.355" transform="translate(-0.329 -0.329)" fill="none" stroke="#fff" stroke-miterlimit="10" stroke-width="1.5"/>
        <line id="Line_21" data-name="Line 21" x1="27.659" y2="92.031" transform="translate(60.528 0.946)" fill="none" stroke="#fff" stroke-miterlimit="10" stroke-width="1.5"/>
        <line id="Line_22" data-name="Line 22" x1="52.301" y2="72.166" transform="translate(35.886 1.198)" fill="none" stroke="#fff" stroke-miterlimit="10" stroke-width="1.5"/>
        <line id="Line_23" data-name="Line 23" x1="73.172" y2="46.141" transform="translate(14.764 1.072)" fill="none" stroke="#fff" stroke-miterlimit="10" stroke-width="1.5"/>
        <line id="Line_24" data-name="Line 24" x1="85.991" y2="8.224" transform="translate(1.689 1.272)" fill="none" stroke="#fff" stroke-miterlimit="10" stroke-width="1.5"/>
        <path id="Path_448" data-name="Path 448" d="M35.433,34.659c2.78-8.066,4.805-24-11.816-26.951" transform="translate(-0.329 -0.329)" fill="none" stroke="#fff" stroke-miterlimit="10" stroke-width="1.5"/>
        <path id="Path_449" data-name="Path 449" d="M56.833,21.391c2.78-8.067,2.6-15.518-10.247-15.94" transform="translate(-0.329 -0.329)" fill="none" stroke="#fff" stroke-miterlimit="10" stroke-width="1.5"/>
        <path id="Path_450" data-name="Path 450" d="M46.867,59.222c.442-6.987-.917-19.9-16.692-21.209" transform="translate(-0.329 -0.329)" fill="none" stroke="#fff" stroke-miterlimit="10" stroke-width="1.5"/>
        <path id="Path_451" data-name="Path 451" d="M60.354,40.5c.291-7.092.044-14.247-11.069-14.558" transform="translate(-0.329 -0.329)" fill="none" stroke="#fff" stroke-miterlimit="10" stroke-width="1.5"/>
        <path id="Path_452" data-name="Path 452" d="M64.774,79.534a23.207,23.207,0,0,0-21.508-15.4" transform="translate(-0.329 -0.329)" fill="none" stroke="#fff" stroke-miterlimit="10" stroke-width="1.5"/>
        <path id="Path_453" data-name="Path 453" d="M89.6,84.712c-4.527-5.9-13.023-9.72-23.764-7.17" transform="translate(-0.329 -0.329)" fill="none" stroke="#fff" stroke-miterlimit="10" stroke-width="1.5"/>
        <path id="Path_454" data-name="Path 454" d="M89.734,65.062c-4.3-5.6-8.123-9.379-18.317-6.959" transform="translate(-0.329 -0.329)" fill="none" stroke="#fff" stroke-miterlimit="10" stroke-width="1.5"/>
        <path id="Path_455" data-name="Path 455" d="M69.421,64.664c-.015-7.211-4.342-14.884-17.127-12.878" transform="translate(-0.329 -0.329)" fill="none" stroke="#fff" stroke-miterlimit="10" stroke-width="1.5"/>
        <path id="Path_456" data-name="Path 456" d="M90.017,47.428c-2.141-6.662-3.867-8.52-13.294-6.794" transform="translate(-0.329 -0.329)" fill="none" stroke="#fff" stroke-miterlimit="10" stroke-width="1.5"/>
        <path id="Path_457" data-name="Path 457" d="M76.32,41.608c-.924-8.675-9.554-9.87-15.661-1.771" transform="translate(-0.329 -0.329)" fill="none" stroke="#fff" stroke-miterlimit="10" stroke-width="1.5"/>
        <path id="Path_458" data-name="Path 458" d="M80.308,28.287c-.924-8.675-8.364-3.983-10.09-1.461" transform="translate(-0.329 -0.329)" fill="none" stroke="#fff" stroke-miterlimit="10" stroke-width="1.5"/>
        <path id="Path_459" data-name="Path 459" d="M89.853,34.2c-2.142-6.662-5.695-7.9-9.811-4.847" transform="translate(-0.329 -0.329)" fill="none" stroke="#fff" stroke-miterlimit="10" stroke-width="1.5"/>
        <path id="Path_460" data-name="Path 460" d="M71.187,25.468c.291-7.092-1.633-9.661-6.944-9.13" transform="translate(-0.329 -0.329)" fill="none" stroke="#fff" stroke-miterlimit="10" stroke-width="1.5"/>
        <path id="Path_461" data-name="Path 461" d="M64.111,16.338c2.78-8.067-1.461-10.489-4.647-12.215" transform="translate(-0.329 -0.329)" fill="none" stroke="#fff" stroke-miterlimit="10" stroke-width="1.5"/>
        <path id="Path_462" data-name="Path 462" d="M55.348,47.006c.978-7.48-2.512-15.938-14.215-15.916" transform="translate(-0.329 -0.329)" fill="none" stroke="#fff" stroke-miterlimit="10" stroke-width="1.5"/>
        <path id="Path_463" data-name="Path 463" d="M72.342,54.309c-.015-7.212-7.037-12.746-16.33-8.1" transform="translate(-0.329 -0.329)" fill="none" stroke="#fff" stroke-miterlimit="10" stroke-width="1.5"/>
        <path id="Path_464" data-name="Path 464" d="M25.21,40.9C27.99,32.832,28.2,11.928,11.575,8.976" transform="translate(-0.329 -0.329)" fill="none" stroke="#fff" stroke-miterlimit="10" stroke-width="1.5"/>
        <path id="Path_465" data-name="Path 465" d="M46.055,27.888c2.78-8.066,2.756-20.82-10.091-21.242" transform="translate(-0.329 -0.329)" fill="none" stroke="#fff" stroke-miterlimit="10" stroke-width="1.5"/>
      </g>
    </g>
    <g id="Artwork_16-2" data-name="Artwork 16" transform="translate(139.872 65.055)" style="mix-blend-mode: overlay;isolation: isolate">
      <g id="Group_102" data-name="Group 102" transform="translate(-44.872 -50.726)">
        <path id="Path_522" data-name="Path 522" d="M90.024,5.506,89.613,97.87a3.9,3.9,0,0,1-6.98,2.4c-3.914-5.1-9.966-8.727-19.252-6.523a3.8,3.8,0,0,1-2.742-.389,3.908,3.908,0,0,1-1.789-2.129c-1.97-5.654-7.339-16.026-20.278-16.3a3.909,3.909,0,0,1-3.778-4.164c.441-6.988-.918-19.9-16.692-21.21a3.9,3.9,0,0,1-3.4-5.146c2.78-8.067,5.52-23.081-11.1-26.034A3.929,3.929,0,0,1,.631,13C1.6,10.644,2.319,7.812,1.636,5.4A3.928,3.928,0,0,1,5.385.329l80.8.42a3.912,3.912,0,0,1,3.866,4.343h0A3.579,3.579,0,0,0,90.024,5.506Z" transform="translate(-0.329 -0.329)" fill="none" stroke="#fff" stroke-miterlimit="10" stroke-width="1.5"/>
        <path id="Path_523" data-name="Path 523" d="M60.639,93.355" transform="translate(-0.329 -0.329)" fill="none" stroke="#fff" stroke-miterlimit="10" stroke-width="1.5"/>
        <line id="Line_33" data-name="Line 33" x1="27.659" y2="92.031" transform="translate(60.528 0.946)" fill="none" stroke="#fff" stroke-miterlimit="10" stroke-width="1.5"/>
        <line id="Line_34" data-name="Line 34" x1="52.301" y2="72.166" transform="translate(35.886 1.198)" fill="none" stroke="#fff" stroke-miterlimit="10" stroke-width="1.5"/>
        <line id="Line_35" data-name="Line 35" x1="73.172" y2="46.141" transform="translate(14.764 1.072)" fill="none" stroke="#fff" stroke-miterlimit="10" stroke-width="1.5"/>
        <line id="Line_36" data-name="Line 36" x1="85.991" y2="8.224" transform="translate(1.689 1.272)" fill="none" stroke="#fff" stroke-miterlimit="10" stroke-width="1.5"/>
        <path id="Path_524" data-name="Path 524" d="M35.433,34.659c2.78-8.066,4.805-24-11.816-26.951" transform="translate(-0.329 -0.329)" fill="none" stroke="#fff" stroke-miterlimit="10" stroke-width="1.5"/>
        <path id="Path_525" data-name="Path 525" d="M56.833,21.391c2.78-8.067,2.6-15.518-10.247-15.94" transform="translate(-0.329 -0.329)" fill="none" stroke="#fff" stroke-miterlimit="10" stroke-width="1.5"/>
        <path id="Path_526" data-name="Path 526" d="M46.867,59.222c.442-6.987-.917-19.9-16.692-21.209" transform="translate(-0.329 -0.329)" fill="none" stroke="#fff" stroke-miterlimit="10" stroke-width="1.5"/>
        <path id="Path_527" data-name="Path 527" d="M60.354,40.5c.291-7.092.044-14.247-11.069-14.558" transform="translate(-0.329 -0.329)" fill="none" stroke="#fff" stroke-miterlimit="10" stroke-width="1.5"/>
        <path id="Path_528" data-name="Path 528" d="M64.774,79.534a23.207,23.207,0,0,0-21.508-15.4" transform="translate(-0.329 -0.329)" fill="none" stroke="#fff" stroke-miterlimit="10" stroke-width="1.5"/>
        <path id="Path_529" data-name="Path 529" d="M89.6,84.712c-4.527-5.9-13.023-9.72-23.764-7.17" transform="translate(-0.329 -0.329)" fill="none" stroke="#fff" stroke-miterlimit="10" stroke-width="1.5"/>
        <path id="Path_530" data-name="Path 530" d="M89.734,65.062c-4.3-5.6-8.123-9.379-18.317-6.959" transform="translate(-0.329 -0.329)" fill="none" stroke="#fff" stroke-miterlimit="10" stroke-width="1.5"/>
        <path id="Path_531" data-name="Path 531" d="M69.421,64.664c-.015-7.211-4.342-14.884-17.127-12.878" transform="translate(-0.329 -0.329)" fill="none" stroke="#fff" stroke-miterlimit="10" stroke-width="1.5"/>
        <path id="Path_532" data-name="Path 532" d="M90.017,47.428c-2.141-6.662-3.867-8.52-13.294-6.794" transform="translate(-0.329 -0.329)" fill="none" stroke="#fff" stroke-miterlimit="10" stroke-width="1.5"/>
        <path id="Path_533" data-name="Path 533" d="M76.32,41.608c-.924-8.675-9.554-9.87-15.661-1.771" transform="translate(-0.329 -0.329)" fill="none" stroke="#fff" stroke-miterlimit="10" stroke-width="1.5"/>
        <path id="Path_534" data-name="Path 534" d="M80.308,28.287c-.924-8.675-8.364-3.983-10.09-1.461" transform="translate(-0.329 -0.329)" fill="none" stroke="#fff" stroke-miterlimit="10" stroke-width="1.5"/>
        <path id="Path_535" data-name="Path 535" d="M89.853,34.2c-2.142-6.662-5.695-7.9-9.811-4.847" transform="translate(-0.329 -0.329)" fill="none" stroke="#fff" stroke-miterlimit="10" stroke-width="1.5"/>
        <path id="Path_536" data-name="Path 536" d="M71.187,25.468c.291-7.092-1.633-9.661-6.944-9.13" transform="translate(-0.329 -0.329)" fill="none" stroke="#fff" stroke-miterlimit="10" stroke-width="1.5"/>
        <path id="Path_537" data-name="Path 537" d="M64.111,16.338c2.78-8.067-1.461-10.489-4.647-12.215" transform="translate(-0.329 -0.329)" fill="none" stroke="#fff" stroke-miterlimit="10" stroke-width="1.5"/>
        <path id="Path_538" data-name="Path 538" d="M55.348,47.006c.978-7.48-2.512-15.938-14.215-15.916" transform="translate(-0.329 -0.329)" fill="none" stroke="#fff" stroke-miterlimit="10" stroke-width="1.5"/>
        <path id="Path_539" data-name="Path 539" d="M72.342,54.309c-.015-7.212-7.037-12.746-16.33-8.1" transform="translate(-0.329 -0.329)" fill="none" stroke="#fff" stroke-miterlimit="10" stroke-width="1.5"/>
        <path id="Path_540" data-name="Path 540" d="M25.21,40.9C27.99,32.832,28.2,11.928,11.575,8.976" transform="translate(-0.329 -0.329)" fill="none" stroke="#fff" stroke-miterlimit="10" stroke-width="1.5"/>
        <path id="Path_541" data-name="Path 541" d="M46.055,27.888c2.78-8.066,2.756-20.82-10.091-21.242" transform="translate(-0.329 -0.329)" fill="none" stroke="#fff" stroke-miterlimit="10" stroke-width="1.5"/>
      </g>
    </g>
    <g id="Artwork_12" data-name="Artwork 12" transform="translate(100 153.541)">
      <g id="Layer_1" data-name="Layer 1" transform="translate(-75 -87.541)">
        <g id="Group_72" data-name="Group 72">
          <path id="Path_267" data-name="Path 267" d="M239.924,254.514c-1.81-6.471-7.943-21.552-25.914-22.257,0,0-3.594-5.84-18.867-4.492-.071-2.931-17.37-7.9-24.766-.854-7.3-7.286-24.866-2.265-24.937.689-15.274-1.348-18.868,4.492-18.868,4.492a26.7,26.7,0,0,0-20,9.916c-4.157,2.042-7.082,6.105-7.362,13.369a5.1,5.1,0,0,0-3.058,5.013l.413,5.737a12.493,12.493,0,0,0,6.981,10.271,5.009,5.009,0,0,0,.026.595c1.053,9.755,3.14,30.568,4.494,53.825-1.4,38.619,123.138,38.619,125.011-1.17,1.231-26.157,2.26-44.475,2.82-53.957a7.24,7.24,0,0,0-.01-.992,11.6,11.6,0,0,0,6.675-10.426v-5.327A5.071,5.071,0,0,0,239.924,254.514Z" transform="translate(-94.802 -184.555)" stroke="#000" stroke-miterlimit="10" stroke-width="6.649"/>
          <path id="Path_268" data-name="Path 268" d="M163.8,21.945c35.579,0,64.451,29.59,64.745,66.2H238.8c-.294-42.455-33.758-76.779-75-76.779S89.09,45.695,88.8,88.15H99.051C99.345,51.535,128.217,21.945,163.8,21.945Z" transform="translate(-88.796 -11.371)"/>
          <path id="Path_269" data-name="Path 269" d="M224.119,232.258s-3.594-5.84-18.868-4.492c-.071-2.931-17.37-7.9-24.766-.854-7.3-7.286-24.866-2.265-24.937.689-15.274-1.348-18.867,4.492-18.867,4.492-22.91.9-28.179,26.456-28.179,26.456,20.2,23.478,50.6,19.523,71.522,19.711l.282-.282c21.182.055,49.893,3.274,70.4-20.556C250.7,257.423,247.03,233.156,224.119,232.258Z" transform="translate(-104.911 -184.555)" fill="#f78e26" stroke="#fc5900" stroke-miterlimit="10" stroke-width="1.662"/>
          <path id="Path_270" data-name="Path 270" d="M215.114,270.178c-7.4-7.038-24.691-2.075-24.762.855-15.273-1.348-18.867,4.492-18.867,4.492-10.234.4-16.946,5.724-21.243,11.49a25.379,25.379,0,0,0,18.988,8.921s3.6,5.839,18.869,4.485c.072,2.931,17.373,7.889,24.766.844.172.171.351.333.533.491C217.162,291.248,219.505,280.583,215.114,270.178Z" transform="translate(-139.044 -220.075)" opacity="0.32" style="mix-blend-mode: overlay;isolation: isolate"/>
          <path id="Path_271" data-name="Path 271" d="M168.1,273.163l-.025.037c-10.234.4-16.946,5.724-21.243,11.49a25.379,25.379,0,0,0,18.988,8.922s1.854,3.01,8.553,4.206c-.4-3.807-.914-7.63-1.63-11.479C172.021,281.744,170.942,276.8,168.1,273.163Z" transform="translate(-136.259 -225.455)" fill="none" stroke="#fc5900" stroke-miterlimit="10" stroke-width="1.662"/>
          <path id="Path_272" data-name="Path 272" d="M383.994,226.066c-6.053-5.758-18.728-3.483-23.176-.86-.988.583-1.573,1.183-1.585,1.715-.158-.014-.309-.023-.464-.035,1.679,9.848.175,19.884-2.472,29.48.226-.017.453-.035.684-.056.025,1,2.071,2.246,5.049,3.162,5.714,1.758,14.857,2.314,19.717-2.317.172.171.35.333.533.491C386.041,247.136,388.385,236.472,383.994,226.066Z" transform="translate(-307.547 -184.002)" fill="none" stroke="#fc5900" stroke-miterlimit="10" stroke-width="1.662"/>
          <path id="Path_273" data-name="Path 273" d="M498.7,229.127c-.057-.057-.639.2-.7.142,1.662,1.662,2.569,20.76-1.194,31.271,7.584,6.554,24.335,1.7,24.4-1.189.057.005-6.313.5-6.256.5,1.234-10.06,7.795-20.935,7.81-30.968C519.456,226.047,505.224,222.913,498.7,229.127Z" transform="translate(-422.453 -186.502)" fill="none" stroke="#fc5900" stroke-miterlimit="10" stroke-width="1.662"/>
          <path id="Path_274" data-name="Path 274" d="M461.827,288.407H439.973v-9.183c-.584-8.15,21.97-7.691,21.854,0Z" transform="translate(-375.967 -225.553)" fill="#f78e26" stroke="#fc5900" stroke-miterlimit="10" stroke-width="1.662"/>
          <ellipse id="Ellipse_12" data-name="Ellipse 12" cx="10.528" cy="3.114" rx="10.528" ry="3.114" transform="translate(64.569 47.702)" fill="#f78e26" stroke="#fc5900" stroke-miterlimit="10" stroke-width="1.662"/>
          <path id="Path_275" data-name="Path 275" d="M516.884,284.877c0-.6-1.722-1.121-4.294-1.408-1.47-.164-2.765.59-2.644,1.525,0,.011,0,.022,0,.033.095.817,1.321,1.4,2.6,1.261C515.146,286,516.884,285.478,516.884,284.877Z" transform="translate(-433.191 -233.865)" fill="#fff" opacity="0.25" style="mix-blend-mode: overlay;isolation: isolate"/>
          <path id="Path_276" data-name="Path 276" d="M510.343,309.93a1.3,1.3,0,0,0-.6.543,37.541,37.541,0,0,1-4.6,6.365,12.258,12.258,0,0,1-1.084,1.092,1.309,1.309,0,0,0,.848,2.3h6.144a1.318,1.318,0,0,0,1.318-1.318v-7.888a1.307,1.307,0,0,0-1.858-1.173Z" transform="translate(-428.01 -255.36)" fill="#fff" opacity="0.25" style="mix-blend-mode: overlay;isolation: isolate"/>
          <path id="Path_277" data-name="Path 277" d="M730.51,274.621c-.419,7.207-1.863,14.3-3.253,21.391A5.2,5.2,0,0,0,728.2,295c10.219-.4,16.925-5.715,21.22-11.474A25.371,25.371,0,0,0,730.51,274.621Z" transform="translate(-610.908 -226.648)" fill="none" stroke="#fc5900" stroke-miterlimit="10" stroke-width="1.662"/>
          <path id="Path_278" data-name="Path 278" d="M136.8,485.179c1.054,9.755,3.141,30.568,4.494,53.825-1.4,38.619,123.138,38.619,125.011-1.17,1.231-26.157,2.26-44.476,2.821-53.957.232-3.919-2.693-6.961-5.733-5.956-16.523,5.463-60.954,22.634-122.689,2.913C138.536,480.142,136.5,482.41,136.8,485.179Z" transform="translate(-128.026 -392.741)" fill="#f78e26" stroke="#fc5900" stroke-miterlimit="10" stroke-width="1.662"/>
          <g id="Group_71" data-name="Group 71" transform="translate(4.386 55.699)">
            <g id="Group_69" data-name="Group 69">
              <path id="Path_279" data-name="Path 279" d="M153.094,323.117s-42.7-20.219-40.118,12.968c2.953,4.035,15.749,5.212,26.262,7.051C139.238,343.136,140.637,327.635,153.094,323.117Z" transform="translate(-112.864 -317.017)" fill="#f78e26" stroke="#fc5900" stroke-miterlimit="10" stroke-width="1.662"/>
              <path id="Path_280" data-name="Path 280" d="M216.652,340.094s-33.509-17.518-37.681,13.19c4.682,7.491,13.332,5.417,23.825,6.829C202.8,360.114,204.2,344.613,216.652,340.094Z" transform="translate(-166.924 -331.82)" fill="#f78e26" stroke="#fc5900" stroke-miterlimit="10" stroke-width="1.662"/>
              <path id="Path_281" data-name="Path 281" d="M297.947,336.017s-38.861-10.872-36.52,23.3c10.534,3.791,20.393,6.093,27.156,1.553C288.583,360.867,286.71,343.782,297.947,336.017Z" transform="translate(-234.27 -331.21)" fill="#f78e26" stroke="#fc5900" stroke-miterlimit="10" stroke-width="1.662"/>
            </g>
            <g id="Group_70" data-name="Group 70" transform="translate(75.76)">
              <path id="Path_282" data-name="Path 282" d="M657.249,323.117s42.7-20.219,40.118,12.968c-2.953,4.035-15.749,5.212-26.262,7.051C671.105,343.136,669.706,327.635,657.249,323.117Z" transform="translate(-633.803 -317.017)" fill="#f78e26" stroke="#fc5900" stroke-miterlimit="10" stroke-width="1.662"/>
              <path id="Path_283" data-name="Path 283" d="M605.131,340.094s33.509-17.518,37.681,13.19c-4.682,7.491-13.332,5.417-23.825,6.829C618.987,360.114,617.588,344.613,605.131,340.094Z" transform="translate(-591.183 -331.82)" fill="#f78e26" stroke="#fc5900" stroke-miterlimit="10" stroke-width="1.662"/>
              <path id="Path_284" data-name="Path 284" d="M528.59,336.017s38.861-10.872,36.52,23.3c-10.534,3.791-20.393,6.093-27.156,1.553C537.954,360.867,539.827,343.782,528.59,336.017Z" transform="translate(-528.59 -331.21)" fill="#f78e26" stroke="#fc5900" stroke-miterlimit="10" stroke-width="1.662"/>
            </g>
            <path id="Path_285" data-name="Path 285" d="M406.736,343.395s4.163,2,12.083,0c0,0,12.426,1.661,11.863,17.993a117.814,117.814,0,0,1-36.324,0S396.87,345.113,406.736,343.395Z" transform="translate(-343.06 -338.588)" fill="#f78e26" stroke="#fc5900" stroke-miterlimit="10" stroke-width="1.662"/>
          </g>
          <path id="Path_286" data-name="Path 286" d="M323.537,615.275c-3.907,7.485-11.242,11.445-16.3,8.8s-6.022-10.9-2.1-18.41c1.121-2.147,3.222-3.3,4.693-2.534,1.452.758,1.74,3.123.6,5.3-1.666,3.191-1.267,6.685.891,7.812s5.272-.534,6.938-3.725c1.121-2.147,3.222-3.3,4.693-2.534,1.432.748,1.706,3.142.585,5.289" transform="translate(-263.732 -495.1)"/>
          <path id="Path_287" data-name="Path 287" d="M602.156,604.7c2.594,7.58.3,15.291-5.106,17.14s-11.933-2.808-14.537-10.417c-.744-2.174-.1-4.4,1.47-4.933,1.55-.53,3.43.8,4.185,3,1.106,3.232,3.864,5.208,6.168,4.42s3.293-4.048,2.187-7.28c-.744-2.174-.1-4.4,1.47-4.933,1.529-.523,3.419.832,4.163,3.006" transform="translate(-492.289 -494.021)"/>
          <path id="Path_288" data-name="Path 288" d="M463.552,663.01l-5.194,10.758c-.237.491,0,1.179.4,1.18l14.072.042c.4,0,.634-.67.408-1.164l-4.895-10.721C467.2,660.594,464.742,660.545,463.552,663.01Z" transform="translate(-390.933 -542.771)"/>
          <path id="Path_289" data-name="Path 289" d="M383.512,783.479a5.861,5.861,0,0,0-1.232-8.769.813.813,0,0,0-1.1.2l-2.942,4.095a4.111,4.111,0,0,1-6.715-.055l-2.429-3.5a.807.807,0,0,0-1.318-.011l-.2.276a4.111,4.111,0,0,1-6.715-.054l-.82-1.181a.807.807,0,0,0-1.4.126l-1.876,4.12c-1.326,2.912-4.091,2.869-5.4-.085l-2.138-4.832a.807.807,0,0,0-1.469-.014l-2.338,5.026c-1.326,2.852-4.091,2.81-5.4-.082l-2.139-4.736a.807.807,0,0,0-1.39-.139l-1.063,1.479a4.111,4.111,0,0,1-6.715-.054h0a.807.807,0,0,0-1.318-.011l-2.1,2.929a4.111,4.111,0,0,1-6.715-.055l-2.342-3.373a.807.807,0,0,0-1.2-.141,5.853,5.853,0,0,0-.719,7.83,81.435,81.435,0,0,0,5.456,6.516.811.811,0,0,0,.854.2,3.3,3.3,0,0,1,3.727,1.223l3.131,4.4a.807.807,0,0,0,1.318,0l.2-.278a4.111,4.111,0,0,1,6.715-.023l.834,1.172a.807.807,0,0,0,1.4-.142l1.829-4.141c1.292-2.927,4.057-2.916,5.4.023l2.194,4.807a.807.807,0,0,0,1.469,0l2.28-5.052c1.294-2.867,4.058-2.857,5.4.02L358.7,795.9a.807.807,0,0,0,1.392.123l1.046-1.491a4.111,4.111,0,0,1,6.715-.023h0a.807.807,0,0,0,1.318,0l2.727-3.888a3.3,3.3,0,0,1,4.562-.833.809.809,0,0,0,1.007-.068A82.966,82.966,0,0,0,383.512,783.479Z" transform="translate(-272.256 -634.478)"/>
          <path id="Path_290" data-name="Path 290" d="M259.585,450.511c-16.551,5.834-61.068,24.206-122.7,2.576-2.162-.759-4.211,1.686-3.926,4.683.175,1.838.379,4.045.6,6.559.09,1.008,9.92,3.528,11.144,3.905,18.492,5.707,37.816,5.173,57.118,6.109,18.143.879,53.853-9.64,62.164.332,1,1.2.936-11.47,1.014-12.806.1-1.813.2-3.448.286-4.888C265.538,452.743,262.629,449.437,259.585,450.511Z" transform="translate(-124.887 -370.317)" opacity="0.32" style="mix-blend-mode: overlay;isolation: isolate"/>
          <path id="Path_291" data-name="Path 291" d="M792.717,326.149a1.387,1.387,0,0,0-1.493,2.078c.02.03.039.06.056.091,3.478,5.761,5.86,10.189,6.161,16.37a1.413,1.413,0,0,0,1.642,1.286c3-.436,4.757-.075,5.961-1.119a1.342,1.342,0,0,0,.457-.924C806.268,332.242,800.043,327.551,792.717,326.149Z" transform="translate(-663.032 -268.763)" fill="#fff" opacity="0.25" style="mix-blend-mode: overlay;isolation: isolate"/>
          <path id="Path_292" data-name="Path 292" d="M720.634,363.1c-2.081-14.57-8.638-17.731-16.734-17.372a1.016,1.016,0,0,0-.565,1.83,13.428,13.428,0,0,1,4.276,5.081c2.438,4.876,4.3,8.518,5.175,13.7a1.014,1.014,0,0,0,1.079.841c3.75-.3,4.357.156,6.622-3.392A1.017,1.017,0,0,0,720.634,363.1Z" transform="translate(-591.008 -284.778)" fill="#fff" opacity="0.25" style="mix-blend-mode: overlay;isolation: isolate"/>
          <path id="Path_293" data-name="Path 293" d="M574.438,348.288a.915.915,0,0,0-.221,1.78c8.474,2.756,14.843,10.7,16.722,19.816.255,1.276.471,2.553.66,3.83a.918.918,0,0,0,1.162.749c2.36-.674,4.792-1.517,7.264-2.454a.919.919,0,0,0,.592-.824C601.34,349.692,585.294,347.4,574.438,348.288Z" transform="translate(-485.245 -286.763)" fill="#fff" opacity="0.25" style="mix-blend-mode: overlay;isolation: isolate"/>
          <path id="Path_294" data-name="Path 294" d="M509.96,353.9l-.046.006a2.913,2.913,0,0,0-2.441,3.561,24.453,24.453,0,0,1-.5,11.836,2.9,2.9,0,0,0,2.727,3.644q4.229.109,8.546-.054a2.909,2.909,0,0,0,2.789-2.833c.337-11.6-7.254-15.183-9.695-16.032A2.951,2.951,0,0,0,509.96,353.9Z" transform="translate(-430.686 -291.458)" fill="#fff" opacity="0.25" style="mix-blend-mode: overlay;isolation: isolate"/>
          <path id="Path_295" data-name="Path 295" d="M96.153,398.026l.413,5.737a12.531,12.531,0,0,0,8.189,10.8c27.607,10.284,93.564,10.2,129.664-1.638a11.662,11.662,0,0,0,8.144-11.018v-5.327a5.267,5.267,0,0,0-6.771-4.923q-68.044,18.923-132.926,1.076A5.245,5.245,0,0,0,96.153,398.026Z" transform="translate(-94.802 -322.191)" fill="#f78e26" stroke="#fc5900" stroke-miterlimit="10" stroke-width="1.662"/>
          <path id="Path_296" data-name="Path 296" d="M302.764,404.609a.41.41,0,0,0-.2.079,100.651,100.651,0,0,1-24.975,14.188c-17.328,7.03-35.239,3.627-52.635-.458a.382.382,0,1,0-.216.733c28.305,8.057,87.363,7.136,117.981-3.934a6.2,6.2,0,0,0,4.2-5.772v-6.878a5.455,5.455,0,0,0-7.006-5A251.443,251.443,0,0,1,302.764,404.609Z" transform="translate(-199.729 -327.021)" fill="#fff" opacity="0.25" style="mix-blend-mode: overlay;isolation: isolate"/>
          <path id="Path_297" data-name="Path 297" d="M406.2,342.14s4.163,2,12.083,0c0,0,12.426,1.661,11.863,17.992a117.808,117.808,0,0,1-36.324,0S396.332,343.858,406.2,342.14Z" transform="translate(-338.234 -281.862)" fill="none" stroke="#fc5900" stroke-miterlimit="10" stroke-width="1.662"/>
          <path id="Path_298" data-name="Path 298" d="M96.153,398.026l.413,5.737a12.531,12.531,0,0,0,8.189,10.8c27.607,10.284,93.564,10.2,129.664-1.638a11.662,11.662,0,0,0,8.144-11.018v-5.327a5.267,5.267,0,0,0-6.771-4.923q-68.044,18.923-132.926,1.076A5.245,5.245,0,0,0,96.153,398.026Z" transform="translate(-94.802 -322.191)" fill="none" stroke="#fc5900" stroke-miterlimit="10" stroke-width="1.662"/>
        </g>
      </g>
    </g>
  </g>
</svg>
