<svg xmlns="http://www.w3.org/2000/svg" xmlns:xlink="http://www.w3.org/1999/xlink" width="200" height="300" viewBox="0 0 200 300">
  <defs>
    <clipPath id="clip-vampire">
      <rect width="200" height="300"/>
    </clipPath>
  </defs>
  <g id="vampire" clip-path="url(#clip-vampire)">
    <g id="Rectangle_9" data-name="Rectangle 9" fill="#333" stroke="#fff" stroke-width="3">
      <rect width="200" height="300" rx="19" stroke="none"/>
      <rect x="1.5" y="1.5" width="197" height="297" rx="17.5" fill="none"/>
    </g>
    <g id="Artwork_16" data-name="Artwork 16" transform="matrix(-1, -0.017, 0.017, -1, 62.872, 235.055)" style="mix-blend-mode: overlay;isolation: isolate">
      <g id="Group_94" data-name="Group 94" transform="translate(-44.872 -50.726)">
        <path id="Path_446" data-name="Path 446" d="M90.024,5.506,89.613,97.87a3.9,3.9,0,0,1-6.98,2.4c-3.914-5.1-9.966-8.727-19.252-6.523a3.8,3.8,0,0,1-2.742-.389,3.908,3.908,0,0,1-1.789-2.129c-1.97-5.654-7.339-16.026-20.278-16.3a3.909,3.909,0,0,1-3.778-4.164c.441-6.988-.918-19.9-16.692-21.21a3.9,3.9,0,0,1-3.4-5.146c2.78-8.067,5.52-23.081-11.1-26.034A3.929,3.929,0,0,1,.631,13C1.6,10.644,2.319,7.812,1.636,5.4A3.928,3.928,0,0,1,5.385.329l80.8.42a3.912,3.912,0,0,1,3.866,4.343h0A3.579,3.579,0,0,0,90.024,5.506Z" transform="translate(-0.329 -0.329)" fill="none" stroke="#fff" stroke-miterlimit="10" stroke-width="1.5"/>
        <path id="Path_447" data-name="Path 447" d="M60.639,93.355" transform="translate(-0.329 -0.329)" fill="none" stroke="#fff" stroke-miterlimit="10" stroke-width="1.5"/>
        <line id="Line_21" data-name="Line 21" x1="27.659" y2="92.031" transform="translate(60.528 0.946)" fill="none" stroke="#fff" stroke-miterlimit="10" stroke-width="1.5"/>
        <line id="Line_22" data-name="Line 22" x1="52.301" y2="72.166" transform="translate(35.886 1.198)" fill="none" stroke="#fff" stroke-miterlimit="10" stroke-width="1.5"/>
        <line id="Line_23" data-name="Line 23" x1="73.172" y2="46.141" transform="translate(14.764 1.072)" fill="none" stroke="#fff" stroke-miterlimit="10" stroke-width="1.5"/>
        <line id="Line_24" data-name="Line 24" x1="85.991" y2="8.224" transform="translate(1.689 1.272)" fill="none" stroke="#fff" stroke-miterlimit="10" stroke-width="1.5"/>
        <path id="Path_448" data-name="Path 448" d="M35.433,34.659c2.78-8.066,4.805-24-11.816-26.951" transform="translate(-0.329 -0.329)" fill="none" stroke="#fff" stroke-miterlimit="10" stroke-width="1.5"/>
        <path id="Path_449" data-name="Path 449" d="M56.833,21.391c2.78-8.067,2.6-15.518-10.247-15.94" transform="translate(-0.329 -0.329)" fill="none" stroke="#fff" stroke-miterlimit="10" stroke-width="1.5"/>
        <path id="Path_450" data-name="Path 450" d="M46.867,59.222c.442-6.987-.917-19.9-16.692-21.209" transform="translate(-0.329 -0.329)" fill="none" stroke="#fff" stroke-miterlimit="10" stroke-width="1.5"/>
        <path id="Path_451" data-name="Path 451" d="M60.354,40.5c.291-7.092.044-14.247-11.069-14.558" transform="translate(-0.329 -0.329)" fill="none" stroke="#fff" stroke-miterlimit="10" stroke-width="1.5"/>
        <path id="Path_452" data-name="Path 452" d="M64.774,79.534a23.207,23.207,0,0,0-21.508-15.4" transform="translate(-0.329 -0.329)" fill="none" stroke="#fff" stroke-miterlimit="10" stroke-width="1.5"/>
        <path id="Path_453" data-name="Path 453" d="M89.6,84.712c-4.527-5.9-13.023-9.72-23.764-7.17" transform="translate(-0.329 -0.329)" fill="none" stroke="#fff" stroke-miterlimit="10" stroke-width="1.5"/>
        <path id="Path_454" data-name="Path 454" d="M89.734,65.062c-4.3-5.6-8.123-9.379-18.317-6.959" transform="translate(-0.329 -0.329)" fill="none" stroke="#fff" stroke-miterlimit="10" stroke-width="1.5"/>
        <path id="Path_455" data-name="Path 455" d="M69.421,64.664c-.015-7.211-4.342-14.884-17.127-12.878" transform="translate(-0.329 -0.329)" fill="none" stroke="#fff" stroke-miterlimit="10" stroke-width="1.5"/>
        <path id="Path_456" data-name="Path 456" d="M90.017,47.428c-2.141-6.662-3.867-8.52-13.294-6.794" transform="translate(-0.329 -0.329)" fill="none" stroke="#fff" stroke-miterlimit="10" stroke-width="1.5"/>
        <path id="Path_457" data-name="Path 457" d="M76.32,41.608c-.924-8.675-9.554-9.87-15.661-1.771" transform="translate(-0.329 -0.329)" fill="none" stroke="#fff" stroke-miterlimit="10" stroke-width="1.5"/>
        <path id="Path_458" data-name="Path 458" d="M80.308,28.287c-.924-8.675-8.364-3.983-10.09-1.461" transform="translate(-0.329 -0.329)" fill="none" stroke="#fff" stroke-miterlimit="10" stroke-width="1.5"/>
        <path id="Path_459" data-name="Path 459" d="M89.853,34.2c-2.142-6.662-5.695-7.9-9.811-4.847" transform="translate(-0.329 -0.329)" fill="none" stroke="#fff" stroke-miterlimit="10" stroke-width="1.5"/>
        <path id="Path_460" data-name="Path 460" d="M71.187,25.468c.291-7.092-1.633-9.661-6.944-9.13" transform="translate(-0.329 -0.329)" fill="none" stroke="#fff" stroke-miterlimit="10" stroke-width="1.5"/>
        <path id="Path_461" data-name="Path 461" d="M64.111,16.338c2.78-8.067-1.461-10.489-4.647-12.215" transform="translate(-0.329 -0.329)" fill="none" stroke="#fff" stroke-miterlimit="10" stroke-width="1.5"/>
        <path id="Path_462" data-name="Path 462" d="M55.348,47.006c.978-7.48-2.512-15.938-14.215-15.916" transform="translate(-0.329 -0.329)" fill="none" stroke="#fff" stroke-miterlimit="10" stroke-width="1.5"/>
        <path id="Path_463" data-name="Path 463" d="M72.342,54.309c-.015-7.212-7.037-12.746-16.33-8.1" transform="translate(-0.329 -0.329)" fill="none" stroke="#fff" stroke-miterlimit="10" stroke-width="1.5"/>
        <path id="Path_464" data-name="Path 464" d="M25.21,40.9C27.99,32.832,28.2,11.928,11.575,8.976" transform="translate(-0.329 -0.329)" fill="none" stroke="#fff" stroke-miterlimit="10" stroke-width="1.5"/>
        <path id="Path_465" data-name="Path 465" d="M46.055,27.888c2.78-8.066,2.756-20.82-10.091-21.242" transform="translate(-0.329 -0.329)" fill="none" stroke="#fff" stroke-miterlimit="10" stroke-width="1.5"/>
      </g>
    </g>
    <g id="Artwork_16-2" data-name="Artwork 16" transform="translate(139.872 65.055)" style="mix-blend-mode: overlay;isolation: isolate">
      <g id="Group_102" data-name="Group 102" transform="translate(-44.872 -50.726)">
        <path id="Path_522" data-name="Path 522" d="M90.024,5.506,89.613,97.87a3.9,3.9,0,0,1-6.98,2.4c-3.914-5.1-9.966-8.727-19.252-6.523a3.8,3.8,0,0,1-2.742-.389,3.908,3.908,0,0,1-1.789-2.129c-1.97-5.654-7.339-16.026-20.278-16.3a3.909,3.909,0,0,1-3.778-4.164c.441-6.988-.918-19.9-16.692-21.21a3.9,3.9,0,0,1-3.4-5.146c2.78-8.067,5.52-23.081-11.1-26.034A3.929,3.929,0,0,1,.631,13C1.6,10.644,2.319,7.812,1.636,5.4A3.928,3.928,0,0,1,5.385.329l80.8.42a3.912,3.912,0,0,1,3.866,4.343h0A3.579,3.579,0,0,0,90.024,5.506Z" transform="translate(-0.329 -0.329)" fill="none" stroke="#fff" stroke-miterlimit="10" stroke-width="1.5"/>
        <path id="Path_523" data-name="Path 523" d="M60.639,93.355" transform="translate(-0.329 -0.329)" fill="none" stroke="#fff" stroke-miterlimit="10" stroke-width="1.5"/>
        <line id="Line_33" data-name="Line 33" x1="27.659" y2="92.031" transform="translate(60.528 0.946)" fill="none" stroke="#fff" stroke-miterlimit="10" stroke-width="1.5"/>
        <line id="Line_34" data-name="Line 34" x1="52.301" y2="72.166" transform="translate(35.886 1.198)" fill="none" stroke="#fff" stroke-miterlimit="10" stroke-width="1.5"/>
        <line id="Line_35" data-name="Line 35" x1="73.172" y2="46.141" transform="translate(14.764 1.072)" fill="none" stroke="#fff" stroke-miterlimit="10" stroke-width="1.5"/>
        <line id="Line_36" data-name="Line 36" x1="85.991" y2="8.224" transform="translate(1.689 1.272)" fill="none" stroke="#fff" stroke-miterlimit="10" stroke-width="1.5"/>
        <path id="Path_524" data-name="Path 524" d="M35.433,34.659c2.78-8.066,4.805-24-11.816-26.951" transform="translate(-0.329 -0.329)" fill="none" stroke="#fff" stroke-miterlimit="10" stroke-width="1.5"/>
        <path id="Path_525" data-name="Path 525" d="M56.833,21.391c2.78-8.067,2.6-15.518-10.247-15.94" transform="translate(-0.329 -0.329)" fill="none" stroke="#fff" stroke-miterlimit="10" stroke-width="1.5"/>
        <path id="Path_526" data-name="Path 526" d="M46.867,59.222c.442-6.987-.917-19.9-16.692-21.209" transform="translate(-0.329 -0.329)" fill="none" stroke="#fff" stroke-miterlimit="10" stroke-width="1.5"/>
        <path id="Path_527" data-name="Path 527" d="M60.354,40.5c.291-7.092.044-14.247-11.069-14.558" transform="translate(-0.329 -0.329)" fill="none" stroke="#fff" stroke-miterlimit="10" stroke-width="1.5"/>
        <path id="Path_528" data-name="Path 528" d="M64.774,79.534a23.207,23.207,0,0,0-21.508-15.4" transform="translate(-0.329 -0.329)" fill="none" stroke="#fff" stroke-miterlimit="10" stroke-width="1.5"/>
        <path id="Path_529" data-name="Path 529" d="M89.6,84.712c-4.527-5.9-13.023-9.72-23.764-7.17" transform="translate(-0.329 -0.329)" fill="none" stroke="#fff" stroke-miterlimit="10" stroke-width="1.5"/>
        <path id="Path_530" data-name="Path 530" d="M89.734,65.062c-4.3-5.6-8.123-9.379-18.317-6.959" transform="translate(-0.329 -0.329)" fill="none" stroke="#fff" stroke-miterlimit="10" stroke-width="1.5"/>
        <path id="Path_531" data-name="Path 531" d="M69.421,64.664c-.015-7.211-4.342-14.884-17.127-12.878" transform="translate(-0.329 -0.329)" fill="none" stroke="#fff" stroke-miterlimit="10" stroke-width="1.5"/>
        <path id="Path_532" data-name="Path 532" d="M90.017,47.428c-2.141-6.662-3.867-8.52-13.294-6.794" transform="translate(-0.329 -0.329)" fill="none" stroke="#fff" stroke-miterlimit="10" stroke-width="1.5"/>
        <path id="Path_533" data-name="Path 533" d="M76.32,41.608c-.924-8.675-9.554-9.87-15.661-1.771" transform="translate(-0.329 -0.329)" fill="none" stroke="#fff" stroke-miterlimit="10" stroke-width="1.5"/>
        <path id="Path_534" data-name="Path 534" d="M80.308,28.287c-.924-8.675-8.364-3.983-10.09-1.461" transform="translate(-0.329 -0.329)" fill="none" stroke="#fff" stroke-miterlimit="10" stroke-width="1.5"/>
        <path id="Path_535" data-name="Path 535" d="M89.853,34.2c-2.142-6.662-5.695-7.9-9.811-4.847" transform="translate(-0.329 -0.329)" fill="none" stroke="#fff" stroke-miterlimit="10" stroke-width="1.5"/>
        <path id="Path_536" data-name="Path 536" d="M71.187,25.468c.291-7.092-1.633-9.661-6.944-9.13" transform="translate(-0.329 -0.329)" fill="none" stroke="#fff" stroke-miterlimit="10" stroke-width="1.5"/>
        <path id="Path_537" data-name="Path 537" d="M64.111,16.338c2.78-8.067-1.461-10.489-4.647-12.215" transform="translate(-0.329 -0.329)" fill="none" stroke="#fff" stroke-miterlimit="10" stroke-width="1.5"/>
        <path id="Path_538" data-name="Path 538" d="M55.348,47.006c.978-7.48-2.512-15.938-14.215-15.916" transform="translate(-0.329 -0.329)" fill="none" stroke="#fff" stroke-miterlimit="10" stroke-width="1.5"/>
        <path id="Path_539" data-name="Path 539" d="M72.342,54.309c-.015-7.212-7.037-12.746-16.33-8.1" transform="translate(-0.329 -0.329)" fill="none" stroke="#fff" stroke-miterlimit="10" stroke-width="1.5"/>
        <path id="Path_540" data-name="Path 540" d="M25.21,40.9C27.99,32.832,28.2,11.928,11.575,8.976" transform="translate(-0.329 -0.329)" fill="none" stroke="#fff" stroke-miterlimit="10" stroke-width="1.5"/>
        <path id="Path_541" data-name="Path 541" d="M46.055,27.888c2.78-8.066,2.756-20.82-10.091-21.242" transform="translate(-0.329 -0.329)" fill="none" stroke="#fff" stroke-miterlimit="10" stroke-width="1.5"/>
      </g>
    </g>
    <g id="Artwork_14" data-name="Artwork 14" transform="translate(100 149.601)">
      <g id="Group_87" data-name="Group 87" transform="translate(-75 -90.601)">
        <path id="Path_395" data-name="Path 395" d="M179.354,22.244c35.533,0,64.368,23.876,64.662,62.011h10.242c-.294-44.218-33.714-73.024-74.9-73.024s-74.609,28.807-74.9,73.024h10.241C114.986,46.12,143.821,22.244,179.354,22.244Z" transform="translate(-104.257 -11.231)"/>
        <path id="Path_396" data-name="Path 396" d="M254.092,305.939l.1,15.875a6.8,6.8,0,0,1-4.355,6.332l-.2.077a7.238,7.238,0,0,1,.183,2.123c-.584,9.775-1.655,28.661-2.938,55.629C244.929,427,115.215,427,116.678,387.181c-1.41-23.978-3.583-45.436-4.681-55.493a4.953,4.953,0,0,1,.118-1.734c-.241-.112-.486-.223-.719-.338a7.692,7.692,0,0,1-4.266-6.377l-1.181-16.924v-1.951c0-9.157,33.133-16.58,74-16.58s74,7.423,74,16.58Z" transform="translate(-105.474 -235.691)" stroke="#000" stroke-miterlimit="10" stroke-width="7.033"/>
        <path id="Path_397" data-name="Path 397" d="M135.4,486.792c1.1,10.057,3.271,31.515,4.681,55.493-1.463,39.816,128.251,39.816,130.2-1.207,1.282-26.968,2.354-45.854,2.938-55.629.241-4.04-2.8-7.177-5.97-6.14-17.209,5.633-63.484,23.335-127.783,3C137.207,481.6,135.085,483.938,135.4,486.792Z" transform="translate(-129.349 -390.977)" fill="#93278f" stroke="#93278f" stroke-miterlimit="10" stroke-width="1.731"/>
        <path id="Path_398" data-name="Path 398" d="M338.893,666.342a9.877,9.877,0,1,1,17.924,8.3,2.843,2.843,0,0,1-5.16-2.39,4.2,4.2,0,0,0-7.625-3.532,2.833,2.833,0,1,1-5.14-2.381" transform="translate(-294.327 -538.298)"/>
        <path id="Path_399" data-name="Path 399" d="M563.377,674.132a9.877,9.877,0,0,1,18.441-7.082,2.843,2.843,0,0,1-5.308,2.039,4.2,4.2,0,0,0-7.844,3.013,2.833,2.833,0,1,1-5.288,2.031" transform="translate(-476.206 -538.374)"/>
        <path id="Path_400" data-name="Path 400" d="M375.977,798.794l-1.643,9.423c-.387,2.216-2.361,2.8-3.855,1.144l-6.523-7.238a.805.805,0,0,1-.191-.423A51.843,51.843,0,0,1,345,801.554l-5.826,7.278c-1.406,1.756-3.419,1.319-3.93-.854l-2.212-9.405c-7.537-2.175-12.3-3.5-12.3,1.784,0,9.4,14.592,25.116,33.549,25.116s35.1-15.711,35.1-25.116C389.376,794.9,384.106,796.494,375.977,798.794Z" transform="translate(-279.793 -648.716)"/>
        <path id="Path_401" data-name="Path 401" d="M408.644,507.812c0,9.841,17.819,17.819,17.819,17.819s17.819-7.978,17.819-17.819a17.764,17.764,0,0,0-1.4-6.938H410.045A17.764,17.764,0,0,0,408.644,507.812Z" transform="translate(-351.15 -408.642)"/>
        <path id="Path_402" data-name="Path 402" d="M177.906,503.824a206.139,206.139,0,0,1-33.787-7.7c-2.255-.713-4.377,1.625-4.066,4.48.8,7.339,2.174,20.753,3.406,36.783,3.312-.92,6.2-3.309,8.65-5.49A159.6,159.6,0,0,0,177.906,503.824Z" transform="translate(-133.128 -404.684)"/>
        <path id="Path_403" data-name="Path 403" d="M666.658,495.381a206.152,206.152,0,0,0,33.662-8.226c2.244-.749,4.4,1.556,4.136,4.415-.685,7.351-1.848,20.784-2.828,36.832-3.326-.868-6.248-3.211-8.735-5.353A159.591,159.591,0,0,1,666.658,495.381Z" transform="translate(-560.563 -397.391)"/>
        <g id="Group_85" data-name="Group 85" transform="translate(7.301 95.401)">
          <path id="Path_404" data-name="Path 404" d="M153.087,532.276a13.259,13.259,0,0,0,4.52-12.764,1.723,1.723,0,0,0-3.379.679A9.819,9.819,0,0,1,142.183,531.6q.168,1.728.342,3.579A13.225,13.225,0,0,0,153.087,532.276Z" transform="translate(-142.183 -518.056)" fill="#93278f"/>
          <path id="Path_405" data-name="Path 405" d="M160.233,536.573c6.117-5.314,8.88-12.511,7.114-17.463q-3.043-.65-6.15-1.413a1.957,1.957,0,0,0,.685,1.288,5.565,5.565,0,0,1,.623.613c3.036,3.494,1.154,10.1-4.2,14.753-4.168,3.621-9.211,4.993-12.674,3.778q.183,2,.369,4.109C150.345,542.5,155.676,540.532,160.233,536.573Z" transform="translate(-144.979 -517.697)" fill="#93278f"/>
        </g>
        <g id="Group_86" data-name="Group 86" transform="translate(121.241 93.055)">
          <path id="Path_406" data-name="Path 406" d="M790.158,519.82a13.259,13.259,0,0,1-4.52-12.764,1.723,1.723,0,0,1,3.379.68,9.819,9.819,0,0,0,12.045,11.411q-.168,1.728-.342,3.579A13.223,13.223,0,0,1,790.158,519.82Z" transform="translate(-778.168 -505.601)" fill="#93278f"/>
          <path id="Path_407" data-name="Path 407" d="M754.7,524.118c-6.117-5.314-8.88-12.511-7.113-17.463q3.043-.65,6.15-1.413a1.958,1.958,0,0,1-.685,1.288,5.581,5.581,0,0,0-.623.613c-3.036,3.494-1.154,10.1,4.2,14.753,4.168,3.621,9.211,4.993,12.674,3.778q-.183,2-.368,4.109C764.593,530.045,759.262,528.077,754.7,524.118Z" transform="translate(-747.066 -505.242)" fill="#93278f"/>
        </g>
        <ellipse id="Ellipse_16" data-name="Ellipse 16" cx="74.004" cy="16.58" rx="74.004" ry="16.58" transform="translate(0 51.537)" stroke="#93278f" stroke-miterlimit="10" stroke-width="1.731"/>
        <path id="Path_408" data-name="Path 408" d="M271.586,459.073c-17.244,6.077-63.626,25.21-127.844,2.683-2.253-.79-4.387,1.756-4.09,4.878.182,1.914.4,4.213.63,6.831.094,1.05,10.335,3.674,11.611,4.068,19.266,5.944,39.4,5.388,59.511,6.363,18.9.916,56.11-10.041,64.768.346,1.045,1.254.976-11.946,1.056-13.338.109-1.889.209-3.591.3-5.091C277.79,461.4,274.759,457.955,271.586,459.073Z" transform="translate(-132.805 -374.542)" opacity="0.53" style="mix-blend-mode: overlay;isolation: isolate"/>
        <path id="Path_409" data-name="Path 409" d="M540.684,308.5c0-9.157-33.133-16.58-74-16.58q-3.179,0-6.29.06a3.782,3.782,0,0,0,1.547,4.174c7.617,5.54,22.851,9.694,16.619,21.12a57.123,57.123,0,0,1-5.238,7.739C511.079,324.263,540.684,317.158,540.684,308.5Z" transform="translate(-393.058 -239.05)" fill="#333" opacity="0.6"/>
        <path id="Path_410" data-name="Path 410" d="M103.422,379l1.181,16.924a7.692,7.692,0,0,0,4.266,6.377c25.972,12.752,101.412,12.875,138.442-1.47a6.8,6.8,0,0,0,4.355-6.332V378.027Q175.593,401.922,103.422,379Z" transform="translate(-103.422 -308.935)" stroke="#93278f" stroke-miterlimit="10" stroke-width="1.731"/>
        <path id="Path_411" data-name="Path 411" d="M294.383,399.925a97.509,97.509,0,0,1-24.62,14.774c-19.363,8.277-39.429,2.488-58.651-2.4,23.77,11.1,90.039,11.255,122.77-1.327a6.061,6.061,0,0,0,3.9-5.637l.038-14.694A237.062,237.062,0,0,1,294.383,399.925Z" transform="translate(-190.827 -319.168)" fill="#333" opacity="0.6"/>
      </g>
    </g>
  </g>
</svg>
